<svg width="25" height="25" viewBox="0 0 25 25" fill="none" xmlns="http://www.w3.org/2000/svg">
<g clip-path="url(#clip0_11_6)">
<path d="M12.5 0.390625C15.7172 0.398903 18.7995 1.6838 21.07 3.96309C23.3405 6.24238 24.6135 9.32968 24.6094 12.5469C24.5986 15.6891 23.3668 18.704 21.1743 20.9549C18.9818 23.2057 16.0002 24.5161 12.8594 24.6094H12.4688C9.32648 24.6028 6.30982 23.375 4.05606 21.1854C1.80229 18.9957 0.487927 16.0158 0.390625 12.875V12.4844C0.394766 9.27548 1.6724 6.19942 3.9429 3.93185C6.2134 1.66428 9.2911 0.390622 12.5 0.390625ZM15.5469 13.6719H9.45313C9.6875 18.2031 11.2812 22.0156 12.3906 22.2656H12.5C13.5625 22.2656 15.1875 18.5625 15.5156 14.0938L15.5469 13.6719ZM22.2031 13.6719H17.8906C17.75 16.7344 17.0625 19.5781 16.0469 21.6094C17.6312 20.9899 19.0265 19.968 20.0952 18.6445C21.1638 17.321 21.8688 15.7417 22.1406 14.0625L22.2031 13.6719ZM7.09375 13.6719H2.8125C3.02502 15.4279 3.70978 17.0935 4.79386 18.4913C5.87794 19.889 7.32077 20.9666 8.96875 21.6094C7.89521 19.3018 7.27967 16.8077 7.15625 14.2656L7.10938 13.6719H7.09375ZM8.96875 3.39063L8.78125 3.46875C7.17604 4.12985 5.77569 5.20627 4.724 6.58747C3.67231 7.96867 3.00717 9.60489 2.79687 11.3281H7.09375C7.23437 8.46875 7.84375 5.79688 8.75 3.8125L8.96875 3.39063ZM12.4844 2.73438C11.3906 2.73438 9.70313 6.65625 9.45313 11.3281H15.5469C15.3125 6.79687 13.7031 2.98437 12.5938 2.73438H12.4844ZM16.0469 3.40625L16.0938 3.48438C17.2118 5.95229 17.8228 8.61961 17.8906 11.3281H22.1875C21.9705 9.57767 21.2856 7.91808 20.205 6.524C19.1243 5.12992 17.6879 4.05289 16.0469 3.40625Z" fill="black"/>
</g>
<defs>
<clipPath id="clip0_11_6">
<rect width="25" height="25" fill="white"/>
</clipPath>
</defs>
</svg>
