<svg width="102" height="32" viewBox="0 0 102 32" fill="none" xmlns="http://www.w3.org/2000/svg">
<path d="M43.6622 13.3323C42.5974 12.0237 41.1414 11.3723 39.4235 11.3723C36.0282 11.3723 33.4759 14.0616 33.4759 17.6852C33.4759 21.3089 36.0282 23.9981 39.4235 23.9981C41.1414 23.9981 42.5974 23.3468 43.6622 22.0381L43.8445 23.6563H46.4425V11.7142H43.8445L43.6622 13.3323ZM39.9934 21.514C37.835 21.514 36.2787 19.9508 36.2787 17.6852C36.2787 15.4196 37.835 13.8565 39.9934 13.8565C42.1515 13.8565 43.685 15.4424 43.685 17.6852C43.685 19.928 42.1742 21.514 39.9934 21.514ZM48.3793 23.6563H51.1368V11.7142H48.3793V23.6563ZM27.7105 19.4629C25.5684 14.7909 23.2212 10.0505 20.8284 5.3785C20.3954 4.51247 19.5751 2.84878 18.8459 1.95996C17.7976 0.683707 16.248 0 14.6756 0C13.1032 0 11.5536 0.683707 10.5053 1.95996C9.77615 2.84878 8.95577 4.51247 8.52278 5.3785C6.13002 10.0505 3.78285 14.7909 1.64075 19.4629C1.36729 20.0782 0.706433 21.5368 0.455765 22.1977C0.159518 22.9953 0 23.8614 0 24.7274C0 28.4878 2.93967 31.5189 6.85924 31.5189C10.0952 31.5189 12.6702 29.445 14.6756 27.2799C16.681 29.445 19.256 31.5189 22.492 31.5189C26.4115 31.5189 29.374 28.4878 29.374 24.7274C29.374 23.8614 29.1917 22.9953 28.8955 22.1977C28.6448 21.5368 27.9839 20.0782 27.7105 19.4629ZM14.6756 23.6563C13.0576 21.5596 11.5536 18.9615 11.5536 16.8648C11.5536 14.7681 13.0349 13.7197 14.6756 13.7197C16.3164 13.7197 17.8204 14.8364 17.8204 16.8648C17.8204 18.8931 16.2936 21.5596 14.6756 23.6563ZM22.492 29.1715C20.0955 29.1715 18.0401 27.4955 16.2195 25.4818C18.0966 23.1403 20.1676 19.8254 20.1676 16.8648C20.1676 13.3779 17.4558 11.3723 14.6756 11.3723C11.8954 11.3723 9.20644 13.3779 9.20644 16.8648C9.20644 19.8248 11.2628 23.1385 13.1333 25.4799C11.3125 27.4946 9.25633 29.1715 6.85924 29.1715C4.2614 29.1715 2.34718 27.1887 2.34718 24.7274C2.34718 24.1348 2.43834 23.5879 2.64343 23.0181C2.84853 22.494 3.50938 21.0354 3.78285 20.4656C5.92494 15.7936 8.22654 11.0988 10.6193 6.42685C11.0523 5.56082 11.7815 4.12504 12.3284 3.46412C12.9209 2.73483 13.7413 2.34739 14.6756 2.34739C15.6099 2.34739 16.4303 2.73483 17.0228 3.46412C17.5697 4.12504 18.2989 5.56082 18.7319 6.42685C21.1247 11.0988 23.4263 15.7936 25.5684 20.4656C25.8418 21.0354 26.5027 22.494 26.7078 23.0181C26.9129 23.5879 27.0268 24.1348 27.0268 24.7274C27.0268 27.1887 25.0898 29.1715 22.492 29.1715ZM96.0066 11.3723C94.2881 11.3723 92.7993 12.0506 91.7454 13.3323V6.60917H88.9879V23.6563H91.5858L91.7682 22.0381C92.8329 23.3468 94.2889 23.9981 96.0066 23.9981C99.4021 23.9981 101.954 21.3089 101.954 17.6852C101.954 14.0616 99.4021 11.3723 96.0066 11.3723ZM95.437 21.514C93.2561 21.514 91.7454 19.928 91.7454 17.6852C91.7454 15.4424 93.2561 13.8565 95.437 13.8565C97.6181 13.8565 99.1516 15.4196 99.1516 17.6852C99.1516 19.9508 97.5953 21.514 95.437 21.514ZM82.6072 11.3723C80.8217 11.3723 79.577 12.1991 78.87 13.3323L78.6876 11.7142H76.0897V23.6563H78.8472V16.7508C78.8472 15.0644 80.1004 13.8565 81.8324 13.8565C83.4731 13.8565 84.4075 14.9732 84.4075 16.8876V23.6563H87.165V16.5457C87.165 13.3551 85.4103 11.3723 82.6072 11.3723ZM55.8539 13.4234L55.6716 11.7142H53.0736V23.6563H55.8311V17.6396C55.8311 15.5429 57.1072 14.1983 59.2267 14.1983C59.6823 14.1983 60.1379 14.2439 60.5027 14.3578V11.7142C60.1607 11.5774 59.7279 11.5319 59.2495 11.5319C57.8039 11.5319 56.5788 12.2867 55.8539 13.4234ZM68.7749 11.3723C67.0561 11.3723 65.5673 12.0506 64.5134 13.3323V6.60917H61.7559V23.6563H64.3538L64.5362 22.0381C65.6009 23.3468 67.057 23.9981 68.7749 23.9981C72.1701 23.9981 74.7225 21.3089 74.7225 17.6852C74.7225 14.0616 72.1701 11.3723 68.7749 11.3723ZM68.205 21.514C66.0241 21.514 64.5134 19.928 64.5134 17.6852C64.5134 15.4424 66.0241 13.8565 68.205 13.8565C70.3862 13.8565 71.9197 15.4196 71.9197 17.6852C71.9197 19.9508 70.3634 21.514 68.205 21.514ZM49.7579 6.60917C48.7701 6.60917 47.9692 7.41023 47.9692 8.3982C47.9692 9.38617 48.7701 10.1872 49.7579 10.1872C50.746 10.1872 51.5468 9.38617 51.5468 8.3982C51.5468 7.41023 50.746 6.60917 49.7579 6.60917Z" fill="#FF385C"/>
</svg>
