<svg width="327" height="205" viewBox="0 0 327 205" fill="none" xmlns="http://www.w3.org/2000/svg">
<path d="M77.1601 69.1591H21.2768C20.0842 69.1591 19.1172 68.1921 19.1172 66.9995C19.1172 65.8068 20.0842 64.8398 21.2768 64.8398H77.1606C78.3532 64.8398 79.3202 65.8068 79.3202 66.9995C79.3197 68.1921 78.3532 69.1591 77.1601 69.1591Z" fill="#FFD5E7"/>
<path d="M180.134 11.4218H143.726C142.505 11.4218 141.516 10.4319 141.516 9.21091C141.516 7.98995 142.506 7 143.726 7H180.134C181.355 7 182.344 7.98995 182.344 9.21091C182.345 10.4324 181.355 11.4218 180.134 11.4218Z" fill="#FFD5E7"/>
<path d="M46.1573 97.6598H39.7326C38.0442 97.6598 36.6758 96.2913 36.6758 94.603V88.5724C36.6758 86.8846 38.0442 85.5156 39.7326 85.5156H46.1573C47.8451 85.5156 49.2136 86.8841 49.2136 88.5724V94.603C49.2136 96.2913 47.8451 97.6598 46.1573 97.6598Z" fill="#FD3389"/>
<path d="M233.028 204.743H229.523C228.602 204.743 227.855 203.996 227.855 203.075V199.785C227.855 198.864 228.602 198.117 229.523 198.117H233.028C233.95 198.117 234.696 198.864 234.696 199.785V203.075C234.696 203.996 233.95 204.743 233.028 204.743Z" fill="#FFECF4"/>
<path d="M295.896 64.2367H292.391C291.469 64.2367 290.723 63.49 290.723 62.5694V59.2792C290.723 58.3581 291.469 57.6113 292.391 57.6113H295.896C296.817 57.6113 297.563 58.3581 297.563 59.2792V62.5694C297.563 63.4905 296.817 64.2367 295.896 64.2367Z" fill="#FD3389"/>
<path d="M50.8125 165.9L33.114 175.069L38.2132 177.539L31.8809 185.108L36.8218 189.153L42.9379 181.025L47.0378 185.42L50.8125 165.9Z" fill="#FEFEF4"/>
<path d="M112.44 204.049H91.7608C90.2298 204.049 88.9883 202.808 88.9883 201.276C88.9883 199.745 90.2298 198.504 91.7608 198.504H112.44C113.971 198.504 115.213 199.745 115.213 201.276C115.213 202.808 113.971 204.049 112.44 204.049Z" fill="#FFD5E7" fill-opacity="0.46"/>
<path d="M245.152 184.397H78.6096C76.681 184.397 75.1172 182.833 75.1172 180.905V42.1916C75.1172 40.2625 76.681 38.6992 78.6096 38.6992H245.152C247.08 38.6992 248.644 40.263 248.644 42.1916V180.904C248.644 182.833 247.08 184.397 245.152 184.397Z" fill="#FFD5E7"/>
<path d="M75.1172 56.2305H248.644" stroke="white" stroke-width="1.71532" stroke-miterlimit="10"/>
<path d="M245.152 184.397H78.6096C76.681 184.397 75.1172 182.833 75.1172 180.905V42.1916C75.1172 40.2625 76.681 38.6992 78.6096 38.6992H245.152C247.08 38.6992 248.644 40.263 248.644 42.1916V180.904C248.644 182.833 247.08 184.397 245.152 184.397Z" stroke="#FEFEF4" stroke-width="1.71532" stroke-miterlimit="10"/>
<path d="M89.7862 50.0958C91.1372 50.0958 92.2325 49.0005 92.2325 47.6494C92.2325 46.2984 91.1372 45.2031 89.7862 45.2031C88.4351 45.2031 87.3398 46.2984 87.3398 47.6494C87.3398 49.0005 88.4351 50.0958 89.7862 50.0958Z" stroke="white" stroke-width="1.71532" stroke-miterlimit="10"/>
<path d="M99.294 50.0958C100.645 50.0958 101.74 49.0005 101.74 47.6494C101.74 46.2984 100.645 45.2031 99.294 45.2031C97.9429 45.2031 96.8477 46.2984 96.8477 47.6494C96.8477 49.0005 97.9429 50.0958 99.294 50.0958Z" stroke="white" stroke-width="1.71532" stroke-miterlimit="10"/>
<path d="M108.806 50.0958C110.157 50.0958 111.252 49.0005 111.252 47.6494C111.252 46.2984 110.157 45.2031 108.806 45.2031C107.455 45.2031 106.359 46.2984 106.359 47.6494C106.359 49.0005 107.455 50.0958 108.806 50.0958Z" stroke="white" stroke-width="1.71532" stroke-miterlimit="10"/>
<path d="M111.144 158.148H22.9649C20.1723 158.148 17.9082 155.884 17.9082 153.091V120.402C17.9082 117.61 20.1723 115.346 22.9649 115.346H111.144C113.937 115.346 116.201 117.609 116.201 120.402V153.091C116.2 155.884 113.937 158.148 111.144 158.148Z" fill="#FFD5E7"/>
<path d="M29.8318 123.289C29.8318 124.317 28.9986 125.15 27.9706 125.15C26.9426 125.15 26.1094 124.317 26.1094 123.289C26.1094 122.261 26.9426 121.428 27.9706 121.428C28.9986 121.428 29.8318 122.261 29.8318 123.289Z" stroke="#FEFEF4" stroke-width="0.704618" stroke-miterlimit="10"/>
<path d="M35.203 125.15C36.231 125.15 37.0643 124.317 37.0643 123.289C37.0643 122.261 36.231 121.428 35.203 121.428C34.1751 121.428 33.3418 122.261 33.3418 123.289C33.3418 124.317 34.1751 125.15 35.203 125.15Z" stroke="#FEFEF4" stroke-width="0.704618" stroke-miterlimit="10"/>
<path d="M42.4394 125.15C43.4673 125.15 44.3006 124.317 44.3006 123.289C44.3006 122.261 43.4673 121.428 42.4394 121.428C41.4114 121.428 40.5781 122.261 40.5781 123.289C40.5781 124.317 41.4114 125.15 42.4394 125.15Z" stroke="#FEFEF4" stroke-width="0.704618" stroke-miterlimit="10"/>
<path d="M17.4668 130.07L72.6345 130.07" stroke="#FEFEF4" stroke-width="0.563694" stroke-miterlimit="10"/>
<g filter="url(#filter0_d_323_171)">
<path d="M269.62 61.0116H230.062C226.76 61.0116 224.084 58.3353 224.084 55.0338V23.1243C224.084 19.8228 226.76 17.1465 230.062 17.1465H269.62C272.921 17.1465 275.598 19.8228 275.598 23.1243V55.0338C275.598 58.3353 272.921 61.0116 269.62 61.0116Z" fill="white"/>
<path d="M230.062 17.3965H269.62C272.783 17.3966 275.348 19.9608 275.348 23.124V55.0342C275.347 58.1973 272.783 60.7616 269.62 60.7617H230.062C226.898 60.7616 224.334 58.1973 224.334 55.0342V23.124L224.342 22.8291C224.495 19.803 226.997 17.3966 230.062 17.3965Z" stroke="#FD3389" stroke-width="0.5"/>
</g>
<path d="M246.587 44.0613C241.679 44.0613 237.686 40.0678 237.686 35.1596C237.686 30.2513 241.679 26.2578 246.587 26.2578C251.496 26.2578 255.489 30.2513 255.489 35.1596C255.489 40.0683 251.496 44.0613 246.587 44.0613ZM246.587 28.2748C242.791 28.2748 239.703 31.3634 239.703 35.1596C239.703 38.9558 242.791 42.0443 246.587 42.0443C250.384 42.0443 253.472 38.9558 253.472 35.1596C253.472 31.3634 250.384 28.2748 246.587 28.2748Z" fill="#FD3389"/>
<path d="M252.87 40.0386L251.443 41.4648L254.071 44.0928L255.498 42.6666L252.87 40.0386Z" fill="black"/>
<path d="M256.855 42.2885L262.056 47.4893C262.607 48.0407 262.607 48.9349 262.056 49.4868L260.899 50.6438C260.348 51.1952 259.453 51.1952 258.901 50.6438L253.701 45.443C253.149 44.8916 253.149 43.9974 253.701 43.4455L254.858 42.2885C255.41 41.7372 256.304 41.7372 256.855 42.2885Z" fill="black"/>
<g filter="url(#filter1_d_323_171)">
<path d="M60.0174 47.2613H37.2827C33.4709 47.2613 30.3809 44.1713 30.3809 40.3595V21.0796C30.3809 17.2677 33.4709 14.1777 37.2827 14.1777H60.0174C63.8293 14.1777 66.9193 17.2677 66.9193 21.0796V40.3595C66.9193 44.1713 63.8293 47.2613 60.0174 47.2613Z" fill="#FD3389"/>
</g>
<path d="M48.6486 37.8558C44.3806 37.8558 40.9082 34.3834 40.9082 30.1154C40.9082 25.8474 44.3806 22.375 48.6486 22.375C52.9166 22.375 56.389 25.8474 56.389 30.1154C56.3895 34.3839 52.9171 37.8558 48.6486 37.8558ZM48.6486 24.7012C45.6631 24.7012 43.2344 27.1299 43.2344 30.1154C43.2344 33.1009 45.6631 35.5296 48.6486 35.5296C51.6341 35.5296 54.0628 33.1009 54.0628 30.1154C54.0628 27.1299 51.6341 24.7012 48.6486 24.7012Z" fill="#FEFEF4"/>
<path d="M53.2123 24.6992L44.3359 35.5276" stroke="#FEFEF4" stroke-width="3.99602" stroke-miterlimit="10"/>
<g filter="url(#filter2_d_323_171)">
<path d="M303.161 163.648H220.799C217.28 163.648 214.428 160.796 214.428 157.277V95.8187C214.428 92.2999 217.28 89.4473 220.799 89.4473H303.161C306.68 89.4473 309.533 92.2999 309.533 95.8187V157.277C309.533 160.796 306.68 163.648 303.161 163.648Z" fill="#FD3389"/>
</g>
<path d="M224.266 98.2595C225.261 98.2595 226.068 97.4525 226.068 96.4569C226.068 95.4614 225.261 94.6543 224.266 94.6543C223.27 94.6543 222.463 95.4614 222.463 96.4569C222.463 97.4525 223.27 98.2595 224.266 98.2595Z" stroke="#FEFEF4" stroke-width="0.704618" stroke-miterlimit="10"/>
<path d="M231.279 98.2595C232.275 98.2595 233.082 97.4525 233.082 96.4569C233.082 95.4614 232.275 94.6543 231.279 94.6543C230.284 94.6543 229.477 95.4614 229.477 96.4569C229.477 97.4525 230.284 98.2595 231.279 98.2595Z" stroke="#FEFEF4" stroke-width="0.704618" stroke-miterlimit="10"/>
<path d="M238.281 98.2595C239.277 98.2595 240.084 97.4525 240.084 96.4569C240.084 95.4614 239.277 94.6543 238.281 94.6543C237.286 94.6543 236.479 95.4614 236.479 96.4569C236.479 97.4525 237.286 98.2595 238.281 98.2595Z" stroke="#FEFEF4" stroke-width="0.704618" stroke-miterlimit="10"/>
<path d="M214.428 103.295H309.533" stroke="#FEFEF4" stroke-width="0.704618" stroke-miterlimit="10"/>
<path d="M170.949 132.589L170.587 127.689L140.041 129.191V133.92C140.041 133.92 133.17 140.456 130.459 183.943H185.444C185.444 183.943 191.476 145.456 170.949 132.589Z" fill="#FD3389" fill-opacity="0.32"/>
<path d="M140.045 133.92L170.954 132.59" stroke="black" stroke-width="0.704618" stroke-miterlimit="10"/>
<path d="M106.639 123.119L115.077 95.2617L133.639 102.22L124.734 128.899C122.909 134.409 116.612 137.009 111.431 134.39C107.301 132.302 105.277 127.542 106.639 123.119Z" fill="#F26E5A"/>
<path d="M119.661 80.3779C121.332 74.9476 127.163 71.9748 132.54 73.8111C137.768 75.5966 140.581 81.2609 138.845 86.5056L133.644 102.214L115.082 95.2555L119.661 80.3779Z" fill="#FEFEF4"/>
<path d="M120.974 121.026L99.7741 80.8283C99.7741 80.8283 100.258 73.565 88.1926 73.1314L88.1955 73.1421C88.0314 73.1343 87.8678 73.1191 87.7032 73.1191H83.6702C82.9205 73.1191 82.2392 73.6466 82.1362 74.3889C82.017 75.247 82.6187 75.9864 83.4265 76.0875L87.4947 76.6624L81.9608 78.1392L80.9279 78.5207L73.3922 73.5416C72.7919 73.1138 71.9519 73.3106 71.6052 73.9611C71.3326 74.4715 71.4552 75.103 71.8997 75.4732C72.3646 75.8609 73.1133 76.5031 73.9289 77.2084L72.2655 76.2121C71.633 75.8336 70.8115 76.0968 70.5175 76.7732C70.287 77.3036 70.4594 77.9234 70.9317 78.2574C71.338 78.5446 71.8611 78.9128 72.4168 79.3035L71.8386 79.0779C71.2052 78.8308 70.454 79.0095 70.0677 79.5692C69.5422 80.3306 69.8572 81.364 70.6929 81.7137L78.9275 85.1602C80.3492 85.7556 81.7079 86.1267 83.3796 85.7302L90.7205 83.9998L107.145 129.974L120.974 121.026Z" fill="#F26E5A"/>
<path d="M112.273 104.531L116.197 111.97" stroke="#DB5749" stroke-width="1.32553" stroke-miterlimit="10"/>
<path d="M136.163 73.3742L128.283 73.9632C128.283 73.9632 116.872 89.4415 140.036 129.193L170.583 127.691L172.885 84.8624L169.114 72.7031H155.427L136.163 73.3742Z" fill="#FEFEF4"/>
<path d="M127.22 99.8152C127.22 99.8152 124.947 95.0344 126.407 84.4434" stroke="#FCE7E4" stroke-width="1.37113" stroke-miterlimit="10"/>
<path d="M198.128 117.53L185.443 91.332L168.195 101.104L181.158 126.064C183.821 131.223 190.447 132.807 195.155 129.411C198.908 126.704 200.163 121.686 198.128 117.53Z" fill="#F26E5A"/>
<path d="M178.599 77.352C176.1 72.2494 169.877 70.2235 164.853 72.8769C159.968 75.4571 158.074 81.491 160.608 86.4003L168.199 101.104L185.446 91.3315L178.599 77.352Z" fill="#FEFEF4"/>
<path d="M168.197 101.107L161.93 88.9668" stroke="#FCE7E4" stroke-width="1.37113" stroke-miterlimit="10"/>
<path d="M224.607 72.7166C224.22 72.1569 223.47 71.9782 222.836 72.2253L219.151 73.6636L222.612 70.7352C223.186 70.2503 223.347 69.3936 222.913 68.7802C222.416 68.0779 221.464 67.9705 220.831 68.4804L217.611 71.0737L220.355 67.4845C220.811 66.8877 220.786 66.0165 220.231 65.5105C219.595 64.9308 218.642 65.0294 218.133 65.6634L212.713 71.2876L207.179 69.8107L211.247 69.2359C212.055 69.1348 212.657 68.3954 212.538 67.5373C212.435 66.795 211.753 66.2675 211.004 66.2675H206.971C204.589 66.2675 202.263 67.0997 200.5 68.6816C200.47 68.704 200.443 68.7197 200.413 68.7436C197.938 70.6952 198.839 74.695 198.839 74.695L183.645 117.711L198.703 124.39L207.384 78.1963L212.928 78.2065C213.272 78.2387 213.617 78.2368 213.961 78.2085H214.003L214 78.206C214.596 78.1528 215.186 78.0121 215.747 77.7767L223.982 74.8621C224.817 74.5114 225.132 73.4775 224.607 72.7166Z" fill="#F26E5A"/>
<path d="M189.549 99.8203L186.268 111.275" stroke="#DB5749" stroke-width="1.32553" stroke-miterlimit="10"/>
<path d="M135.558 37.8863C134.608 38.5374 128.24 40.193 128.114 41.348C128.114 41.348 130.209 49.5382 128.063 51.0668C122.262 55.199 120.404 63.3003 120.404 63.3003C120.404 63.3003 135.709 74.7603 176.393 62.7275C176.393 62.7275 176.88 57.8539 169.48 54.3156C167.368 53.3056 165.491 51.7838 164.305 49.7169C163.385 48.116 163.246 47.4367 163.002 45.9999C162.321 41.9829 151.237 27.1297 135.558 37.8863Z" fill="black"/>
<path d="M136.158 50.1672C136.345 52.8553 134.318 55.1858 131.63 55.3729C128.942 55.5599 126.611 53.5327 126.424 50.8446C126.237 48.1565 128.264 45.826 130.952 45.6389C133.64 45.4519 135.971 47.4796 136.158 50.1672Z" fill="#DB5749"/>
<path d="M138.363 62.1101L139.038 72.7212C139.267 76.4476 140.791 78.9867 144.457 78.7313C147.586 78.5134 151.31 76.0061 151.482 72.8736L149.617 56.2266L138.363 62.1101Z" fill="#F26E5A"/>
<path d="M136.169 73.3717L155.433 72.7012C155.433 72.7012 154.965 82.1724 143.515 81.2855C135.556 80.6691 136.169 73.3717 136.169 73.3717Z" fill="#F26E5A"/>
<path d="M138.924 70.8594L151.237 58.8223L138.277 61.0322L138.924 70.8594Z" fill="#DB5749"/>
<path d="M141.594 63.8308C135.325 63.8493 130.148 58.9127 129.961 53.794L129.592 41.7138C129.357 35.2979 134.254 29.8525 140.658 29.4066C147.215 28.9504 154.049 33.8157 154.505 40.3722L154.696 50.0911C154.844 57.6083 149.094 63.3087 141.594 63.8308Z" fill="#F26E5A"/>
<path d="M136.535 49.5352L136.172 52.5348L137.722 52.5915" stroke="black" stroke-width="1.09444" stroke-miterlimit="10" stroke-linecap="round" stroke-linejoin="round"/>
<path d="M142.728 42.2188C142.728 42.2188 139.265 41.9345 139.23 43.3445C139.23 43.3445 139.233 44.2988 142.255 44.4883C145.276 44.6778 146.062 44.4565 146.338 43.5599C146.614 42.6632 144.353 42.2276 142.728 42.2188Z" fill="black"/>
<path d="M132.686 44.2807C132.686 44.2807 135.309 44.0698 135.556 45.3371C135.556 45.3371 135.703 46.1947 133.406 46.3266C131.108 46.4584 130.397 46.1732 130.353 45.4475C130.302 44.5826 131.437 44.268 132.686 44.2807Z" fill="black"/>
<path d="M134.205 48.3944C134.225 49.0063 133.745 49.5186 133.133 49.5387C132.521 49.5587 132.009 49.0791 131.989 48.4672C131.969 47.8552 132.448 47.3429 133.06 47.3229C133.673 47.3028 134.185 47.7824 134.205 48.3944Z" fill="black"/>
<path d="M143.521 48.0877C143.541 48.6997 143.061 49.212 142.45 49.232C141.838 49.252 141.325 48.772 141.305 48.1605C141.285 47.5486 141.765 47.0363 142.377 47.0162C142.989 46.9962 143.501 47.4758 143.521 48.0877Z" fill="black"/>
<path d="M140.279 54.6802C140.279 54.6802 138.641 53.9335 136.662 55.6404" stroke="black" stroke-width="1.09444" stroke-miterlimit="10" stroke-linecap="round" stroke-linejoin="round"/>
<path d="M144.534 27.3271C142.971 27.244 141.395 27.4155 139.882 27.8184C136.128 28.8181 129.385 31.5989 128.23 38.8104C127.845 40.7112 128.111 41.3481 128.111 41.3481C128.111 41.3481 140.704 41.8423 148.149 38.3274C149.221 42.864 150.211 45.6702 154.692 50.0882L158.67 44.1084L163.149 48.1253C163.178 48.2782 163.172 28.3175 144.534 27.3271Z" fill="black"/>
<path d="M161.23 50.2039C161.417 52.892 159.39 55.2225 156.702 55.4096C154.014 55.5966 151.683 53.5693 151.496 50.8813C151.309 48.1932 153.337 45.8627 156.025 45.6761C158.713 45.4886 161.043 47.5158 161.23 50.2039Z" fill="#F26E5A"/>
<path d="M154.502 51.9471C154.502 51.9471 154.256 48.4185 157.669 48.7394" stroke="black" stroke-width="1.09444" stroke-miterlimit="10" stroke-linecap="round" stroke-linejoin="round"/>
<defs>
<filter id="filter0_d_323_171" x="202.945" y="0.235652" width="93.7908" height="86.1423" filterUnits="userSpaceOnUse" color-interpolation-filters="sRGB">
<feFlood flood-opacity="0" result="BackgroundImageFix"/>
<feColorMatrix in="SourceAlpha" type="matrix" values="0 0 0 0 0 0 0 0 0 0 0 0 0 0 0 0 0 0 127 0" result="hardAlpha"/>
<feOffset dy="4.22771"/>
<feGaussianBlur stdDeviation="10.5693"/>
<feComposite in2="hardAlpha" operator="out"/>
<feColorMatrix type="matrix" values="0 0 0 0 0.572115 0 0 0 0 0.572115 0 0 0 0 0.572115 0 0 0 0.25 0"/>
<feBlend mode="normal" in2="BackgroundImageFix" result="effect1_dropShadow_323_171"/>
<feBlend mode="normal" in="SourceGraphic" in2="effect1_dropShadow_323_171" result="shape"/>
</filter>
<filter id="filter1_d_323_171" x="23.3347" y="11.3593" width="50.6314" height="47.1763" filterUnits="userSpaceOnUse" color-interpolation-filters="sRGB">
<feFlood flood-opacity="0" result="BackgroundImageFix"/>
<feColorMatrix in="SourceAlpha" type="matrix" values="0 0 0 0 0 0 0 0 0 0 0 0 0 0 0 0 0 0 127 0" result="hardAlpha"/>
<feOffset dy="4.22771"/>
<feGaussianBlur stdDeviation="3.52309"/>
<feComposite in2="hardAlpha" operator="out"/>
<feColorMatrix type="matrix" values="0 0 0 0 0.451923 0 0 0 0 0.451923 0 0 0 0 0.451923 0 0 0 0.25 0"/>
<feBlend mode="normal" in2="BackgroundImageFix" result="effect1_dropShadow_323_171"/>
<feBlend mode="normal" in="SourceGraphic" in2="effect1_dropShadow_323_171" result="shape"/>
</filter>
<filter id="filter2_d_323_171" x="207.382" y="86.6288" width="109.198" height="88.2935" filterUnits="userSpaceOnUse" color-interpolation-filters="sRGB">
<feFlood flood-opacity="0" result="BackgroundImageFix"/>
<feColorMatrix in="SourceAlpha" type="matrix" values="0 0 0 0 0 0 0 0 0 0 0 0 0 0 0 0 0 0 127 0" result="hardAlpha"/>
<feOffset dy="4.22771"/>
<feGaussianBlur stdDeviation="3.52309"/>
<feComposite in2="hardAlpha" operator="out"/>
<feColorMatrix type="matrix" values="0 0 0 0 0.471154 0 0 0 0 0.471154 0 0 0 0 0.471154 0 0 0 0.25 0"/>
<feBlend mode="normal" in2="BackgroundImageFix" result="effect1_dropShadow_323_171"/>
<feBlend mode="normal" in="SourceGraphic" in2="effect1_dropShadow_323_171" result="shape"/>
</filter>
</defs>
</svg>
