<svg width="956" height="514" viewBox="0 0 956 514" fill="none" xmlns="http://www.w3.org/2000/svg">
<path d="M417.96 181.903C419.429 182.322 421.317 182.637 423.626 182.847C425.934 182.952 428.137 183.004 430.236 183.004C434.433 183.004 437.895 182.165 440.623 180.486C443.456 178.703 444.873 175.975 444.873 172.302C444.873 168.84 443.719 166.374 441.41 164.905C439.102 163.436 435.587 162.702 430.865 162.702H417.96V181.903ZM417.96 143.5H429.449C433.961 143.5 437.213 142.661 439.207 140.982C441.305 139.303 442.355 136.838 442.355 133.585C442.355 130.752 441.148 128.496 438.735 126.817C436.426 125.138 432.911 124.299 428.19 124.299C426.616 124.299 424.78 124.352 422.681 124.456C420.688 124.561 419.114 124.719 417.96 124.929V143.5ZM428.19 204.094C426.406 204.094 424.308 204.042 421.894 203.937C419.481 203.832 416.963 203.622 414.34 203.307C411.822 202.993 409.303 202.573 406.785 202.048C404.267 201.629 401.959 200.999 399.86 200.16C394.089 197.956 391.204 194.127 391.204 188.67V115.171C391.204 112.967 391.781 111.288 392.935 110.134C394.194 108.875 395.873 107.878 397.971 107.144C401.539 105.885 405.998 104.993 411.349 104.468C416.701 103.839 422.209 103.524 427.875 103.524C441.305 103.524 451.64 105.78 458.88 110.292C466.12 114.803 469.74 121.781 469.74 131.224C469.74 135.946 468.376 140.038 465.648 143.5C462.92 146.858 459.248 149.324 454.631 150.897C459.877 152.366 464.231 155.042 467.694 158.924C471.261 162.806 473.045 167.685 473.045 173.561C473.045 183.949 469.163 191.661 461.398 196.697C453.739 201.629 442.669 204.094 428.19 204.094ZM534.617 153.101C534.617 149.848 533.672 147.487 531.784 146.018C530 144.445 527.534 143.658 524.387 143.658C522.288 143.658 520.19 143.92 518.091 144.445C516.098 144.969 514.366 145.756 512.897 146.805V201.419C511.848 201.734 510.169 202.048 507.861 202.363C505.657 202.678 503.349 202.835 500.936 202.835C498.628 202.835 496.529 202.678 494.64 202.363C492.857 202.048 491.335 201.419 490.076 200.474C488.817 199.53 487.82 198.271 487.086 196.697C486.456 195.018 486.141 192.867 486.141 190.244V143.028C486.141 140.195 486.719 137.887 487.873 136.103C489.132 134.319 490.811 132.693 492.909 131.224C496.477 128.706 500.936 126.66 506.287 125.086C511.743 123.512 517.776 122.725 524.387 122.725C536.243 122.725 545.372 125.348 551.772 130.595C558.172 135.736 561.373 142.923 561.373 152.157V201.419C560.323 201.734 558.645 202.048 556.336 202.363C554.133 202.678 551.824 202.835 549.411 202.835C547.103 202.835 545.004 202.678 543.116 202.363C541.332 202.048 539.811 201.419 538.551 200.474C537.292 199.53 536.296 198.271 535.561 196.697C534.932 195.018 534.617 192.867 534.617 190.244V153.101ZM578.214 99.1171C579.263 98.8023 580.942 98.4876 583.251 98.1728C585.559 97.7531 587.92 97.5432 590.333 97.5432C592.641 97.5432 594.687 97.7006 596.471 98.0154C598.36 98.3302 599.934 98.9597 601.193 99.904C602.452 100.848 603.396 102.16 604.026 103.839C604.655 105.413 604.97 107.511 604.97 110.134V125.558C607.593 124.509 610.059 123.774 612.367 123.355C614.781 122.935 617.404 122.725 620.237 122.725C625.273 122.725 630.047 123.617 634.559 125.401C639.071 127.184 643.058 129.808 646.52 133.27C649.983 136.628 652.711 140.825 654.704 145.861C656.698 150.897 657.695 156.721 657.695 163.331C657.695 170.151 656.645 176.132 654.547 181.273C652.553 186.31 649.72 190.507 646.048 193.864C642.376 197.222 637.864 199.792 632.513 201.576C627.267 203.255 621.443 204.094 615.043 204.094C608.118 204.094 602.242 203.255 597.415 201.576C592.589 200.002 588.497 198.009 585.139 195.595C580.523 192.343 578.214 188.146 578.214 183.004V99.1171ZM615.043 183.004C619.869 183.004 623.594 181.378 626.217 178.125C628.945 174.768 630.309 169.836 630.309 163.331C630.309 156.721 628.945 151.789 626.217 148.537C623.489 145.284 619.817 143.658 615.2 143.658C613.102 143.658 611.266 143.868 609.692 144.287C608.223 144.707 606.596 145.336 604.813 146.176V180.486C605.967 181.221 607.331 181.85 608.905 182.375C610.584 182.795 612.63 183.004 615.043 183.004Z" fill="black"/>
<path d="M704.288 120.837C704.288 116.325 705.599 112.757 708.222 110.134C710.845 107.511 714.413 106.2 718.925 106.2H770.862C771.597 107.354 772.226 108.875 772.751 110.764C773.38 112.652 773.695 114.646 773.695 116.744C773.695 120.732 772.803 123.565 771.02 125.243C769.341 126.922 767.085 127.762 764.252 127.762H731.043V142.399H766.455C767.19 143.553 767.819 145.074 768.344 146.963C768.974 148.747 769.288 150.688 769.288 152.786C769.288 156.773 768.449 159.606 766.77 161.285C765.091 162.964 762.836 163.803 760.003 163.803H731.043V180.329H771.492C772.226 181.483 772.856 183.004 773.38 184.893C774.01 186.782 774.325 188.775 774.325 190.874C774.325 194.861 773.433 197.746 771.649 199.53C769.97 201.209 767.715 202.048 764.882 202.048H718.925C714.413 202.048 710.845 200.737 708.222 198.114C705.599 195.491 704.288 191.923 704.288 187.411V120.837ZM784.832 137.52C785.671 133.532 787.297 130.28 789.711 127.762C792.229 125.243 795.324 123.984 798.997 123.984C802.459 123.984 805.135 124.824 807.023 126.502C808.912 128.181 811.01 130.542 813.319 133.585L823.392 146.805L840.232 123.984C846.003 123.984 850.567 125.034 853.925 127.132C857.282 129.126 858.961 131.854 858.961 135.316C858.961 136.68 858.751 137.939 858.331 139.093C858.017 140.143 857.492 141.244 856.758 142.399C856.023 143.553 855.079 144.864 853.925 146.333C852.77 147.802 851.406 149.533 849.833 151.527L839.445 163.174L860.063 190.402C859.538 194.389 857.964 197.537 855.341 199.845C852.718 202.153 849.57 203.307 845.898 203.307C841.911 203.203 838.711 202.048 836.297 199.845C833.989 197.641 831.733 194.966 829.53 191.818L821.031 179.699L804.977 202.835C804.453 202.835 803.876 202.835 803.246 202.835C802.616 202.94 802.092 202.993 801.672 202.993C796.321 202.993 792.229 201.891 789.396 199.688C786.668 197.484 785.304 194.756 785.304 191.503C785.304 188.985 785.881 186.782 787.035 184.893C788.294 182.9 790.393 180.224 793.331 176.866L805.922 162.229L784.832 137.52ZM906.561 122.725C912.856 122.725 918.68 123.565 924.031 125.243C929.487 126.817 934.156 129.283 938.038 132.641C941.92 135.998 944.963 140.248 947.167 145.389C949.37 150.425 950.472 156.459 950.472 163.488C950.472 170.204 949.527 176.079 947.639 181.116C945.75 186.152 943.075 190.402 939.612 193.864C936.15 197.222 931.953 199.74 927.021 201.419C922.195 203.098 916.791 203.937 910.81 203.937C906.298 203.937 902.101 203.255 898.219 201.891V228.017C897.17 228.332 895.491 228.647 893.183 228.962C890.875 229.381 888.514 229.591 886.1 229.591C883.792 229.591 881.694 229.434 879.805 229.119C878.021 228.804 876.5 228.175 875.241 227.23C873.982 226.286 873.037 224.974 872.408 223.296C871.778 221.722 871.463 219.623 871.463 217V141.454C871.463 138.621 872.041 136.313 873.195 134.529C874.454 132.746 876.133 131.119 878.231 129.65C881.484 127.552 885.523 125.873 890.35 124.614C895.176 123.355 900.58 122.725 906.561 122.725ZM906.876 182.847C917.683 182.847 923.086 176.394 923.086 163.488C923.086 156.773 921.722 151.789 918.994 148.537C916.371 145.284 912.541 143.658 907.505 143.658C905.512 143.658 903.728 143.92 902.154 144.445C900.58 144.864 899.216 145.389 898.062 146.018V180.644C899.321 181.273 900.685 181.798 902.154 182.218C903.623 182.637 905.197 182.847 906.876 182.847Z" fill="#E34CA7"/>
<path d="M818.498 251.306L400.992 249.967C395.02 249.947 390.195 254.835 390.292 260.806L391.471 333.919C391.565 339.742 396.312 344.414 402.137 344.414H546.117C548.702 344.414 551.199 343.476 553.143 341.773L581.335 317.098C585.298 313.629 591.2 313.571 595.229 316.963L620.977 338.633C624.947 341.974 630.745 341.974 634.715 338.633L660.317 317.085C664.41 313.64 670.421 313.76 674.373 317.364L697.135 338.117C701.088 341.721 707.099 341.841 711.191 338.396L736.658 316.963C740.687 313.571 746.589 313.629 750.552 317.098L778.744 341.773C780.689 343.476 783.185 344.414 785.77 344.414H818.385C821.274 344.414 824.041 343.241 826.05 341.165L861.336 304.702C865.382 300.522 865.332 293.872 861.225 289.752L826.018 254.442C824.025 252.443 821.321 251.316 818.498 251.306Z" fill="#E34CA7"/>
<path d="M260.371 81.0386C260.496 67.5731 249.642 56.4007 236.263 57.9297C205.32 61.4659 175.525 72.2644 149.368 89.5877C116.408 111.417 90.7321 142.608 75.6443 179.149C60.5565 215.69 56.7464 255.91 64.7042 294.634C72.662 333.359 92.0237 368.816 120.299 396.447C148.574 424.077 184.469 442.615 223.366 449.678C262.264 456.74 302.385 452.003 338.568 436.077C374.752 420.15 405.342 393.762 426.405 360.307C443.212 333.612 455.542 305.059 459.189 274.535C460.75 261.466 449.769 250.969 436.607 250.972L403.106 250.982C389.334 250.986 378.454 262.558 375.21 275.943C371.713 290.372 365.183 304.243 357.284 316.789C344.905 336.45 326.927 351.958 305.662 361.319C284.397 370.679 260.818 373.463 237.958 369.312C215.098 365.161 194.002 354.266 177.385 338.028C160.768 321.79 149.389 300.951 144.712 278.193C140.035 255.435 142.275 231.797 151.142 210.322C160.009 188.847 175.098 170.516 194.469 157.687C207.023 149.373 221.003 143.616 235.611 140.652C248.808 137.975 259.94 127.418 260.065 113.952L260.371 81.0386Z" fill="#E34CA7"/>
<g filter="url(#filter0_i_93_71)">
<path d="M241.821 209.347L205.504 237.035L205.504 237.035C199.441 241.657 196.409 243.968 194.781 247.258C193.152 250.547 193.152 254.359 193.152 261.983V295.162C193.152 309.951 193.152 317.345 197.747 321.94C202.341 326.534 209.735 326.534 224.524 326.534H296.678C311.466 326.534 318.86 326.534 323.455 321.94C328.049 317.345 328.049 309.951 328.049 295.162V261.889C328.049 254.31 328.049 250.52 326.437 247.245C324.825 243.969 321.823 241.657 315.817 237.033L279.981 209.439C270.823 202.388 266.245 198.862 260.926 198.849C255.608 198.836 251.013 202.34 241.821 209.347Z" fill="#ACACAC"/>
</g>
<g filter="url(#filter1_d_93_71)">
<rect x="240.204" y="241.829" width="18.729" height="18.729" rx="4.68225" fill="white"/>
<rect x="261.276" y="241.829" width="18.729" height="18.729" rx="4.68225" fill="white"/>
<rect x="240.204" y="262.891" width="18.729" height="18.729" rx="4.68225" fill="white"/>
<rect x="261.276" y="262.891" width="18.729" height="18.729" rx="4.68225" fill="white"/>
</g>
<path d="M177.22 234.694C173.121 229.954 173.876 223.081 178.905 219.342L252.259 164.82C257.004 161.293 263.896 161.686 268.273 165.732V165.732C273.43 170.5 273.024 178.322 267.406 182.446L193.692 236.549C188.66 240.243 181.301 239.414 177.22 234.694V234.694Z" fill="#E34CA7"/>
<rect width="114.74" height="23.3089" rx="11.6544" transform="matrix(-0.798148 -0.602462 0.659811 -0.751431 335.514 243.671)" fill="#E34CA7"/>
<defs>
<filter id="filter0_i_93_71" x="193.152" y="198.849" width="134.896" height="146.507" filterUnits="userSpaceOnUse" color-interpolation-filters="sRGB">
<feFlood flood-opacity="0" result="BackgroundImageFix"/>
<feBlend mode="normal" in="SourceGraphic" in2="BackgroundImageFix" result="shape"/>
<feColorMatrix in="SourceAlpha" type="matrix" values="0 0 0 0 0 0 0 0 0 0 0 0 0 0 0 0 0 0 127 0" result="hardAlpha"/>
<feOffset dy="18.8228"/>
<feGaussianBlur stdDeviation="15.6856"/>
<feComposite in2="hardAlpha" operator="arithmetic" k2="-1" k3="1"/>
<feColorMatrix type="matrix" values="0 0 0 0 0 0 0 0 0 0 0 0 0 0 0 0 0 0 0.3 0"/>
<feBlend mode="normal" in2="shape" result="effect1_innerShadow_93_71"/>
</filter>
<filter id="filter1_d_93_71" x="227.656" y="241.829" width="64.8988" height="64.8888" filterUnits="userSpaceOnUse" color-interpolation-filters="sRGB">
<feFlood flood-opacity="0" result="BackgroundImageFix"/>
<feColorMatrix in="SourceAlpha" type="matrix" values="0 0 0 0 0 0 0 0 0 0 0 0 0 0 0 0 0 0 127 0" result="hardAlpha"/>
<feOffset dy="12.5485"/>
<feGaussianBlur stdDeviation="6.27426"/>
<feComposite in2="hardAlpha" operator="out"/>
<feColorMatrix type="matrix" values="0 0 0 0 0 0 0 0 0 0 0 0 0 0 0 0 0 0 0.2 0"/>
<feBlend mode="normal" in2="BackgroundImageFix" result="effect1_dropShadow_93_71"/>
<feBlend mode="normal" in="SourceGraphic" in2="effect1_dropShadow_93_71" result="shape"/>
</filter>
</defs>
</svg>
