<svg width="100" height="100" viewBox="0 0 100 100" fill="none" xmlns="http://www.w3.org/2000/svg">
<path d="M89.0542 69.5C86.8979 74.2891 85.8588 76.4297 83.0854 80.6562C79.2026 86.5625 73.726 93.9375 66.9604 93.9844C60.937 94.0391 59.3823 90.0547 51.2026 90.125C43.0307 90.1641 41.3276 94.0625 35.2963 94C28.5229 93.9375 23.3432 87.2969 19.4604 81.3984C8.60103 64.8594 7.4526 45.4688 14.1635 35.1562C18.9135 27.8438 26.4214 23.5469 33.476 23.5469C40.6635 23.5469 45.1792 27.4922 51.1167 27.4922C56.8823 27.4922 60.3901 23.5391 68.7026 23.5391C74.9838 23.5391 81.6245 26.9609 86.3745 32.8672C70.8432 41.3828 73.3667 63.5625 89.0542 69.5ZM62.3901 16.9375C65.4135 13.0547 67.7104 7.57813 66.8745 2C61.9448 2.33594 56.1792 5.48438 52.812 9.5625C49.7573 13.2812 47.226 18.7969 48.2104 24.1328C53.5932 24.3047 59.1635 21.0938 62.3901 16.9375Z" fill="black"/>
</svg>
