<svg width="100" height="100" viewBox="0 0 100 100" fill="none" xmlns="http://www.w3.org/2000/svg">
<path d="M49.9993 10.4141C39.5012 10.4141 29.433 14.5844 22.0097 22.0078C14.5864 29.4311 10.416 39.4992 10.416 49.9974C10.416 60.4955 14.5864 70.5637 22.0097 77.987C29.433 85.4103 39.5012 89.5807 49.9993 89.5807C60.4975 89.5807 70.5657 85.4103 77.989 77.987C85.4123 70.5637 89.5827 60.4955 89.5827 49.9974C89.5827 39.4992 85.4123 29.4311 77.989 22.0078C70.5657 14.5844 60.4975 10.4141 49.9993 10.4141Z" fill="#039BE5"/>
<path d="M55.3581 60.4948H65.6018L67.2102 50.0885H55.356V44.401C55.356 40.0781 56.7685 36.2448 60.8122 36.2448H67.3101V27.1635C66.1685 27.0094 63.7539 26.6719 59.1914 26.6719C49.6643 26.6719 44.0789 31.7031 44.0789 43.1656V50.0885H34.2852V60.4948H44.0789V89.0969C46.0185 89.3885 47.9831 89.5865 49.9997 89.5865C51.8227 89.5865 53.6018 89.4198 55.3581 89.1823V60.4948Z" fill="white"/>
</svg>
