<svg width="100" height="100" viewBox="0 0 100 100" fill="none" xmlns="http://www.w3.org/2000/svg">
<path d="M90.8569 41.8422H87.5006V41.6693H50.0006V58.3359H73.5486C70.1132 68.038 60.8819 75.0026 50.0006 75.0026C36.1944 75.0026 25.0007 63.8089 25.0007 50.0026C25.0007 36.1964 36.1944 25.0026 50.0006 25.0026C56.3736 25.0026 62.1715 27.4068 66.5861 31.3339L78.3715 19.5484C70.9298 12.613 60.9756 8.33594 50.0006 8.33594C26.9902 8.33594 8.33398 26.9922 8.33398 50.0026C8.33398 73.013 26.9902 91.6693 50.0006 91.6693C73.0111 91.6693 91.6673 73.013 91.6673 50.0026C91.6673 47.2089 91.3798 44.4818 90.8569 41.8422Z" fill="#FFC107"/>
<path d="M13.1367 30.6089L26.8263 40.6484C30.5305 31.4776 39.5013 25.0026 49.9992 25.0026C56.3721 25.0026 62.1701 27.4068 66.5846 31.3339L78.3701 19.5484C70.9284 12.613 60.9742 8.33594 49.9992 8.33594C33.9951 8.33594 20.1159 17.3714 13.1367 30.6089Z" fill="#FF3D00"/>
<path d="M50 91.6661C60.7625 91.6661 70.5417 87.5474 77.9354 80.8495L65.0396 69.937C60.8562 73.1057 55.6562 74.9995 50 74.9995C39.1625 74.9995 29.9604 68.0891 26.4937 58.4453L12.9062 68.9141C19.8021 82.4078 33.8063 91.6661 50 91.6661Z" fill="#4CAF50"/>
<path d="M90.8562 41.837H87.5V41.6641H50V58.3307H73.5479C71.8979 62.9911 68.9 67.0099 65.0333 69.937L65.0396 69.9328L77.9354 80.8453C77.0229 81.6745 91.6667 70.8307 91.6667 49.9974C91.6667 47.2036 91.3792 44.4766 90.8562 41.837Z" fill="#1976D2"/>
</svg>
