<svg width="100" height="100" viewBox="0 0 100 100" fill="none" xmlns="http://www.w3.org/2000/svg">
<path d="M93.7494 33.75L83.3327 39.4792L72.916 49.375V83.3333H87.4994C90.9514 83.3333 93.7494 80.5354 93.7494 77.0833V33.75Z" fill="#4CAF50"/>
<path d="M6.25 33.75L13.7792 37.3125L27.0833 49.375V83.3333H12.5C9.04792 83.3333 6.25 80.5354 6.25 77.0833V33.75Z" fill="#1E88E5"/>
<path d="M72.9167 23.3359L50 40.5234L27.0833 23.3359L25 35.4193L27.0833 49.3776L50 66.5651L72.9167 49.3776L75 35.4193L72.9167 23.3359Z" fill="#E53935"/>
<path d="M6.25 25.6182V33.7474L27.0833 49.3724V23.3307L20.575 18.4536C19.025 17.2911 17.1417 16.6641 15.2042 16.6641C10.2583 16.6641 6.25 20.6724 6.25 25.6182Z" fill="#C62828"/>
<path d="M93.7494 25.6182V33.7474L72.916 49.3724V23.3307L79.4244 18.4536C80.9744 17.2911 82.8577 16.6641 84.7952 16.6641C89.741 16.6641 93.7494 20.6724 93.7494 25.6182Z" fill="#FBC02D"/>
</svg>
