<svg width="100" height="100" viewBox="0 0 100 100" fill="none" xmlns="http://www.w3.org/2000/svg">
<rect width="100" height="100" fill="white"/>
<path d="M59.7031 45.9338C58.6649 43.5808 57.6104 41.237 56.5424 38.8975C56.4093 38.6057 55.9854 38.5998 55.7814 38.7995C51.2047 43.2696 46.6285 47.4268 44.1521 53.4568C42.952 56.3793 41.5441 59.9043 41.1846 63.0606C40.895 65.6058 42.8519 68.0173 43.9799 70.1495C44.0016 70.1906 44.0313 70.215 44.0584 70.2453C44.0622 70.2929 44.0622 70.3406 44.0665 70.3887C44.0855 70.5836 44.3756 70.5923 44.3767 70.3887C44.3767 70.386 44.3767 70.3839 44.3767 70.3811C44.6906 70.366 45.0041 70.0336 44.8086 69.665C44.6961 69.4523 44.5699 69.2336 44.44 69.0133C45.1605 59.9411 52.3944 51.4638 59.545 46.5352C59.7583 46.3875 59.8054 46.165 59.7031 45.9338Z" fill="#7D7D7D"/>
<path d="M49.8174 22.9574C49.7043 22.7025 49.2696 22.6494 49.0959 22.8643C45.3896 27.4351 41.9756 32.3728 39.4602 37.7084C37.0492 42.8232 37.8677 48.0873 38.2434 53.5252C38.1876 54.2262 38.1465 54.9294 38.1362 55.6363C38.1356 55.6856 38.2168 55.6996 38.2244 55.6482C38.2747 55.3115 38.33 54.9759 38.3857 54.6408C38.5551 54.8227 38.9303 54.7637 38.9135 54.4519C38.8772 53.7834 38.8372 53.1128 38.7971 52.4415C39.9679 46.7915 42.0103 41.4006 45.2943 36.5755C46.3125 35.0799 47.4335 33.6546 48.6542 32.3192C49.4759 31.4201 50.9796 30.4203 51.5978 29.4005C52.7876 27.441 50.6602 24.8574 49.8174 22.9574Z" fill="#7D7D7D"/>
<path d="M78.3695 79.9152C77.2544 79.7842 76.3461 79.873 75.2516 80.0105C74.2724 80.1339 73.5384 80.2508 72.8991 80.312C73.7208 78.6848 74.3817 76.9548 75.0124 75.2925C75.2126 74.7647 74.6984 74.1742 74.1717 74.1893C65.2938 74.4432 56.416 74.7047 47.5381 74.9612C47.5874 74.8654 47.6004 74.7496 47.5359 74.6267C45.3729 70.4998 51.4106 64.9645 54.3379 62.9779C57.3665 60.9226 62.4163 57.7674 66.1485 57.92C66.4934 57.9341 66.7489 57.5064 66.554 57.2131C58.0518 44.4194 55.066 28.9063 46.757 16.0975C46.665 15.9562 46.4993 15.9838 46.4209 16.0829C46.278 16.0028 46.1026 16.0011 45.9678 16.1635C39.6329 23.8002 36.8193 35.3878 36.776 45.1913C36.7456 45.2904 36.7137 45.39 36.6839 45.4885C36.6661 45.547 36.737 45.5713 36.7733 45.5372C36.7738 45.6558 36.7689 45.7775 36.77 45.895C36.8204 51.4309 37.7763 56.9679 39.5761 62.2028C41.1042 66.6479 43.1514 71.5137 46.456 74.9921C39.3574 75.1978 32.2583 75.3981 25.1597 75.6097C24.6692 75.6243 24.234 76.2084 24.555 76.6631C25.4693 77.9579 26.3538 79.3701 27.3368 80.686C24.9621 81.6717 22.805 81.9159 21.4599 79.2673C21.3348 79.021 20.9261 79.1915 21.0117 79.4562C22.1717 83.0374 26.2585 82.403 28.9266 81.0032C30.5429 80.1556 32.1798 78.7465 34.0646 78.6562C36.442 78.5425 37.9414 80.2433 39.9355 81.2376C39.9642 81.2522 39.9945 81.2609 40.0232 81.275C39.123 81.3361 38.2705 81.6014 37.5814 82.2764C37.5462 82.3105 37.582 82.3749 37.6301 82.3597C39.9658 81.6279 41.7034 82.4274 43.9168 83.0347C45.3826 83.4369 46.8804 83.7584 48.1817 82.8128C48.4697 82.6033 48.3842 82.1335 47.995 82.1226C46.7835 82.0891 45.6349 81.9321 44.4868 81.7551C44.9729 81.649 45.4546 81.4991 45.9277 81.3053C46.9015 80.9063 47.7692 80.2254 48.7522 79.8611C52.7102 78.3936 52.504 80.0505 55.0167 81.1938C55.2397 81.295 55.4617 81.3756 55.6825 81.4379C55.4931 81.4303 55.3041 81.4281 55.1147 81.439C54.5122 81.4731 52.8558 81.6257 53.2948 82.58C53.3436 82.6867 53.5292 82.6358 53.5184 82.5194C53.4415 81.6631 59.3293 83.1858 60.138 83.2323C61.4614 83.3081 62.6128 83.0921 63.4242 82.0041C63.6082 81.7573 63.3024 81.3854 63.0231 81.4823C61.6823 81.9478 60.5461 82.1935 59.1241 81.9943C58.4345 81.898 57.7351 81.7302 57.032 81.6019C58.0848 81.5765 59.1219 81.2165 60.1558 80.7385C62.7762 79.5282 64.6275 78.2145 67.4228 79.8259C68.2526 80.3044 68.7982 80.9204 69.7542 81.2035C69.9496 81.2614 70.1466 81.3064 70.3453 81.3443C70.3388 81.3594 70.3312 81.3746 70.3247 81.3903C70.3842 81.3827 70.4427 81.3767 70.5022 81.3691C73.0566 81.7919 75.8476 80.7239 78.369 80.7153C78.8978 80.7142 78.8686 79.9737 78.3695 79.9152ZM59.2107 59.1964C56.5242 60.449 53.8567 61.871 51.6211 63.8445C49.3785 65.8246 46.0073 69.9856 46.4181 73.445C45.7789 72.4523 45.1656 71.4514 44.5896 70.4376C45.8736 60.7375 51.3018 51.7189 59.7563 46.5987C61.3911 50.1756 63.1833 53.6735 65.3128 57.0009C63.1714 57.173 61.128 58.3022 59.2107 59.1964ZM56.3884 38.719C57.4363 41.295 58.5092 43.8587 59.6578 46.3844C59.6519 46.3871 59.6465 46.3833 59.6405 46.3871C51.3581 51.9901 45.7724 60.4663 44.5485 70.3634C43.4183 68.3671 42.4212 66.3253 41.554 64.2397C42.7887 54.1277 47.8575 44.5759 56.3765 38.7374C56.384 38.7331 56.383 38.725 56.3884 38.719ZM38.8031 55.4625C39.9761 45.2222 44.2962 36.006 52.2404 29.1369C52.4114 28.9891 52.1624 28.7423 51.993 28.889C44.5209 35.3673 39.3715 44.7621 38.6478 54.6868C38.0902 51.8434 37.773 48.9176 37.7389 45.8956C37.7265 44.787 37.7573 43.6795 37.818 42.5741C40.413 35.3635 43.5428 28.6551 49.4029 23.3553C49.5339 23.2367 49.3439 23.0565 49.2118 23.1642C43.461 27.8443 40.2213 34.8514 37.8618 41.8201C38.1227 38.0846 38.7961 34.3821 39.8798 30.7911C41.4376 25.6287 44.0906 21.3817 46.6011 16.7032C50.1293 23.7185 53.1931 30.8404 56.1442 38.1214C56.1957 38.2481 56.2482 38.3747 56.2996 38.5019C56.2812 38.5041 56.2639 38.4992 56.2449 38.5138C48.0615 44.7967 42.4575 53.7466 41.4966 64.1028C40.3448 61.3091 39.4365 58.4326 38.8031 55.4625ZM68.0962 79.1536C66.5421 78.3958 66.0116 77.6964 64.0185 78.0429C60.9326 78.5787 58.5752 81.7773 55.1325 80.1983C53.3203 79.3669 52.4932 78.0347 50.315 78.3308C47.6621 78.6919 45.7794 81.0368 42.9733 81.0254C40.0395 81.013 38.6554 78.274 36.0225 77.6807C33.9071 77.2038 31.2265 78.8348 28.6673 80.0814C27.9874 79.0188 27.2296 77.9936 26.494 76.9808C41.9503 76.6523 57.4065 76.308 72.8628 75.9616C72.2355 77.4009 71.5155 78.8012 70.8541 80.2216C70.1212 80.0592 69.2876 79.7344 68.0962 79.1536Z" fill="#3F3E3E"/>
<path d="M55.8343 78.4357C56.0725 78.8292 56.2923 79.2872 56.6533 79.5838C56.7405 79.6552 56.8899 79.5914 56.8541 79.4669C56.7242 79.0165 56.3962 78.6387 56.1277 78.2636C56.0032 78.0887 55.719 78.2446 55.8343 78.4357Z" fill="#3F3E3E"/>
<path d="M57.5059 77.7805C57.3955 77.6879 57.2634 77.8254 57.35 77.9358C57.5422 78.1805 57.7267 78.4544 57.9877 78.6292C58.1046 78.7083 58.2518 78.5535 58.1793 78.4376C58.0131 78.1729 57.7435 77.9797 57.5059 77.7805Z" fill="#3F3E3E"/>
</svg>
