<svg width="100" height="100" viewBox="0 0 100 100" fill="none" xmlns="http://www.w3.org/2000/svg">
<rect width="100" height="100" fill="white"/>
<g filter="url(#filter0_d_101_331)">
<path d="M80.1907 41.956C80.2772 41.6067 80.0742 41.2095 79.7589 41.0498C71.9207 37.0752 62.503 36.0732 54.0015 34.2203C51.2538 33.6209 48.5259 32.9708 45.7968 32.3707C45.8114 32.3481 45.8314 32.3321 45.844 32.3068C46.2479 31.5098 46.2552 31.4885 46.4182 30.5996C46.5326 29.9749 46.0689 29.5644 45.4901 29.5278C43.3856 29.3947 41.3597 28.9742 39.3099 28.5045C37.5907 28.1106 35.6133 27.9283 34.0385 27.1073C33.3765 26.762 32.6214 27.2989 32.646 28.0182C32.6739 28.8565 32.7571 29.5803 32.9474 30.3415C31.4118 30.239 29.8663 30.1984 28.3054 30.2437C27.6514 30.263 27.356 30.7879 27.3899 31.2989C22.8185 41.0997 21.2171 52.8547 20.0049 63.5005C19.9696 63.8099 20.1259 64.1725 20.4759 64.2211C38.1223 66.6808 55.774 69.6641 73.2174 73.33C73.5787 73.4058 73.9725 73.1623 74.0404 72.7918C75.9359 62.4866 77.6638 52.1335 80.1907 41.956ZM34.3778 29.3615C35.8262 29.8984 37.4057 30.1079 38.9167 30.3907C40.7829 30.74 42.6425 31.0534 44.5287 31.2204C44.524 31.4246 44.542 31.6482 44.5799 32.0434C44.5826 32.068 44.5939 32.0879 44.5985 32.1119C41.1255 31.3714 37.6439 30.744 34.1097 30.4346C34.2188 30.0747 34.312 29.7201 34.3778 29.3615ZM26.4139 64.1139C25.1911 63.8937 22.4266 63.8505 21.6802 62.8432C20.9283 61.8279 21.8352 59.1194 22.0381 57.8679C22.3202 56.1287 22.6322 54.3962 22.9822 52.6691C24.38 45.7717 26.6734 39.1045 28.1903 32.2563C28.2668 32.2696 28.3473 32.2762 28.4338 32.2722C31.9481 32.1146 35.4869 32.2636 39.0278 32.6076C38.8195 32.9908 38.8069 33.2197 38.8887 33.6495C37.7011 38.9108 37.2354 44.2474 36.1536 49.54C35.62 52.1488 35.0857 54.7575 34.5515 57.3662C34.0232 59.9457 32.9587 62.6229 32.8855 65.2337C32.4191 65.1545 31.9534 65.074 31.487 64.9955C29.7951 64.7107 28.1032 64.418 26.4139 64.1139ZM33.495 65.3368C34.3865 63.1006 34.4577 60.4979 34.9567 58.1307C35.5521 55.3084 36.1469 52.4854 36.7431 49.6631C37.942 43.9866 39.8235 38.5536 40.7862 32.8258C40.7882 32.8158 40.7849 32.8078 40.7862 32.7979C50.0668 33.8717 59.3361 36.2728 68.1955 38.5735C69.594 38.9368 70.9886 39.3167 72.3598 39.7718C73.2833 40.0778 77.2127 41.0532 77.878 42.0099C78.7662 43.2873 77.7755 45.3492 77.4741 46.743C77.1049 48.4509 76.7443 50.1608 76.3937 51.872C75.0337 58.5033 73.757 65.1645 72.7803 71.8643C59.6428 69.9961 46.5772 67.557 33.495 65.3368Z" fill="black"/>
<path d="M67.006 42.0079C63.3181 39.5436 59.3461 39.3606 55.8551 40.7046C53.0581 41.0406 50.4301 43.1476 48.7169 45.3119C46.2751 48.397 45.1062 52.5706 46.0303 56.4395C46.9697 60.3709 49.9757 63.8818 53.8871 65.072C57.402 66.1419 62.7439 66.1485 65.7298 63.8053C72.3232 58.633 74.7709 47.1968 67.006 42.0079ZM66.328 60.5385C61.6627 66.2676 51.2085 64.3282 48.3496 57.6477C46.9391 54.3517 47.5486 50.3052 49.4428 47.0684C53.2151 42.7278 59.3328 40.1058 64.8024 42.8363C72.1037 46.4802 70.7284 55.1348 66.328 60.5385Z" fill="black"/>
<path d="M56.7933 44.4597C52.2898 44.5735 48.892 51.284 50.0889 55.2193C51.6278 60.2778 58.2777 61.979 62.6349 59.8074C67.3034 57.4808 68.7705 52.1163 66.6002 47.453C64.4512 42.8343 60.2517 42.4751 56.7933 44.4597ZM56.5245 46.2947C56.6489 46.2361 56.7734 46.1796 56.8978 46.1237C57.4207 46.2535 57.8778 46.5628 58.1692 47.0538C58.6908 47.9327 58.5079 49.4018 57.2883 49.4789C55.4254 49.5974 55.4553 47.3173 56.5245 46.2947ZM57.4952 56.1322C54.4141 55.7483 55.639 52.3345 57.4121 50.6652C57.5624 50.7836 57.764 50.8322 57.9989 50.7424C60.7793 49.6832 61.9795 56.6904 57.4952 56.1322Z" fill="black"/>
<path d="M32.3633 64.3714C31.4758 63.8651 30.6907 63.3754 29.9901 62.6136C29.9309 62.5498 29.8404 62.6396 29.8797 62.7081C30.3946 63.603 31.2336 64.4173 32.225 64.762C32.4565 64.8431 32.5583 64.4825 32.3633 64.3714Z" fill="black"/>
<path d="M30.8506 62.1618C31.2778 62.4373 31.7688 62.8684 32.2831 62.9429C32.4494 62.9669 32.5326 62.7826 32.4255 62.6641C32.0782 62.2803 31.4454 62.1119 30.9804 61.911C30.8114 61.8372 30.6989 62.064 30.8506 62.1618Z" fill="black"/>
<path d="M32.6279 60.1466C32.7038 60.0907 32.7098 59.965 32.616 59.9204C32.2979 59.7707 32.0005 59.8199 31.777 59.4893C31.6552 59.309 31.3918 59.4859 31.4969 59.6729C31.6925 60.0209 32.2341 60.436 32.6279 60.1466Z" fill="black"/>
<path d="M33.8541 47.7441C33.89 47.6336 33.7656 47.5697 33.6778 47.587C33.4795 47.6256 33.208 47.6902 33.0337 47.5578C32.8009 47.3808 32.5021 47.6968 32.725 47.8997C33.0657 48.2105 33.6864 48.2583 33.8541 47.7441Z" fill="black"/>
<path d="M68.7709 68.1933C68.5473 67.9119 68.3377 67.6438 68.0603 67.4136C67.9565 67.3271 67.7975 67.4249 67.8401 67.5573C67.9492 67.9013 68.1162 68.1933 68.2932 68.506C68.4628 68.8061 68.6398 69.1714 68.9232 69.3756C69.1328 69.5267 69.4016 69.3637 69.3384 69.1042C69.2552 68.7655 68.9851 68.4628 68.7709 68.1933Z" fill="black"/>
<path d="M70.1926 67.2402C70.031 67.0313 69.9298 66.7877 69.8873 66.5283C69.8487 66.2941 69.4941 66.3047 69.5114 66.5522C69.5479 67.0718 69.8034 67.8842 70.4215 67.9121C70.5047 67.9161 70.5559 67.817 70.5326 67.7471C70.4594 67.5249 70.3304 67.4178 70.1926 67.2402Z" fill="black"/>
<path d="M42.667 36.8241C42.5173 36.562 42.3869 36.2839 42.2545 36.0131C42.1374 35.7742 41.7921 35.9412 41.8034 36.1661C41.8034 36.1661 41.8014 36.1648 41.8008 36.1634C41.8014 36.1674 41.8021 36.1721 41.8028 36.1767C41.8028 36.1801 41.8034 36.1834 41.8041 36.1867C41.8666 36.7323 42.1447 37.6391 42.7575 37.7655C42.8833 37.7915 42.9837 37.6903 42.9844 37.5693C42.9844 37.2812 42.8041 37.0643 42.667 36.8241Z" fill="black"/>
<path d="M43.8259 35.9042C43.6776 35.7306 43.3755 35.9102 43.5192 36.1045C43.6716 36.3114 43.824 36.5176 43.9756 36.7246C44.1134 36.9115 44.2325 37.1211 44.4221 37.2568C44.5625 37.3573 44.8179 37.2508 44.7354 37.0519C44.5611 36.6268 44.1233 36.2528 43.8259 35.9042Z" fill="black"/>
<path d="M74.3553 45.4499C74.1477 45.2963 73.8749 45.5843 74.0812 45.7527C74.5516 46.1372 75.0512 46.6682 75.6128 46.913C75.7664 46.9795 75.9714 46.8052 75.8503 46.6495C75.4717 46.1638 74.8476 45.8139 74.3553 45.4499Z" fill="black"/>
<path d="M75.006 44.5948C75.3952 44.6114 75.7246 44.7944 76.0885 44.9068C76.2043 44.9427 76.2921 44.7911 76.2302 44.6993C75.9534 44.2861 75.4485 44.1836 74.9807 44.1876C74.7139 44.1896 74.7479 44.5841 75.006 44.5948Z" fill="black"/>
</g>
<defs>
<filter id="filter0_d_101_331" x="16" y="27" width="68.2107" height="54.3438" filterUnits="userSpaceOnUse" color-interpolation-filters="sRGB">
<feFlood flood-opacity="0" result="BackgroundImageFix"/>
<feColorMatrix in="SourceAlpha" type="matrix" values="0 0 0 0 0 0 0 0 0 0 0 0 0 0 0 0 0 0 127 0" result="hardAlpha"/>
<feOffset dy="4"/>
<feGaussianBlur stdDeviation="2"/>
<feComposite in2="hardAlpha" operator="out"/>
<feColorMatrix type="matrix" values="0 0 0 0 0 0 0 0 0 0 0 0 0 0 0 0 0 0 0.25 0"/>
<feBlend mode="normal" in2="BackgroundImageFix" result="effect1_dropShadow_101_331"/>
<feBlend mode="normal" in="SourceGraphic" in2="effect1_dropShadow_101_331" result="shape"/>
</filter>
</defs>
</svg>
