<svg width="100" height="100" viewBox="0 0 100 100" fill="none" xmlns="http://www.w3.org/2000/svg">
<rect width="100" height="100" fill="white"/>
<path d="M18.6362 30.8697C18.5456 30.7622 18.4399 30.6825 18.3261 30.6197C18.1166 30.4516 17.8424 30.3751 17.5646 30.4334C17.5209 30.4425 17.484 30.4653 17.443 30.4794C17.2795 30.5013 17.1179 30.5427 16.9667 30.6015C16.81 30.6625 16.6556 30.7509 16.5076 30.857C16.504 30.8574 16.5008 30.857 16.4971 30.8574C15.7921 30.9909 15.2124 31.5128 15.0207 32.2118C14.9305 32.5411 14.9246 32.8895 15.0234 33.2183C15.1327 33.5821 15.6391 34.1077 15.5453 34.4948C15.4023 35.0836 16.0818 35.3856 16.4616 35.1055C16.7991 35.0112 17.1497 34.7503 17.3538 34.585C17.9344 34.1154 18.3721 33.4337 18.6649 32.7537C18.9213 32.1585 19.0934 31.4126 18.6362 30.8697Z" fill="#F4207B"/>
<path d="M31.6508 63.0122C31.995 62.8305 31.9245 62.3823 31.6508 62.1856C30.7081 61.5066 29.6651 61.0375 28.5339 60.7761C28.1951 60.6978 27.9829 60.9528 27.9733 61.2142C27.7579 61.1864 27.5261 61.3417 27.6122 61.6063C27.6213 61.6341 27.6358 61.6573 27.6454 61.6847H27.6449L27.6459 61.686C27.8854 62.3687 28.3053 62.9115 28.8941 63.3045C28.9087 63.3196 28.9233 63.3346 28.937 63.3487C29.0085 63.4931 29.1428 63.611 29.3496 63.6324C29.6693 63.6657 29.989 63.7012 30.3091 63.7345C30.387 64.035 30.7226 64.2514 31.0491 64.0619C31.2104 63.9685 31.3652 63.8679 31.5219 63.7668C31.8161 63.5764 31.8202 63.2335 31.6416 63.0163C31.6453 63.0145 31.648 63.0135 31.6508 63.0122Z" fill="#F4207B"/>
<path d="M73.8207 40.2524C73.7933 40.2255 73.7651 40.2 73.7378 40.1736C73.8148 40.129 73.8822 40.0693 73.9268 39.9937C74.3298 39.317 74.3312 38.6307 73.9614 37.9394C73.9177 37.8579 73.858 37.8041 73.7933 37.7622C73.577 37.3583 73.2223 37.0131 72.8033 36.7307C72.9208 36.4761 72.8588 36.1574 72.4986 36.0868C71.2298 35.8377 69.9629 35.7211 68.6695 35.7812C68.2656 35.7999 67.9431 36.3536 68.307 36.656C69.1454 37.3519 69.9825 38.0487 70.8236 38.7414C71.0495 38.9272 72.005 39.5766 72.648 40.1427C72.5742 40.2219 72.5319 40.3389 72.5692 40.4318C72.7555 40.8955 73.0164 41.1518 73.4782 41.3404C73.6485 41.4096 73.8348 41.263 73.884 41.1099C73.9473 40.9137 73.9404 40.7256 73.8894 40.5448C73.9268 40.4532 73.9158 40.3458 73.8207 40.2524Z" fill="#F4207B"/>
<path d="M84.2236 58.1052C83.3647 56.8501 81.696 56.397 80.3016 56.0959C80.0953 56.0513 79.9154 56.1365 79.8002 56.2726C79.0975 56.3587 78.4417 56.5422 77.7873 56.8483C77.6484 56.9134 77.6169 57.1165 77.6994 57.2404C77.6884 57.2672 77.6875 57.2973 77.7117 57.3292C78.6503 58.5542 79.7246 59.6468 80.8608 60.6806C80.8376 60.7976 80.8795 60.9228 81.0211 60.9984C81.3631 61.1537 81.6687 61.365 81.9374 61.6324C82.1824 61.8428 82.5071 61.6296 82.5053 61.3846C82.5545 61.365 82.6028 61.3414 82.646 61.3045C83.5928 60.4998 85.1503 59.4591 84.2236 58.1052Z" fill="#F4207B"/>
<path d="M85.588 58.8193C85.4578 58.5693 85.3216 58.3429 85.1823 58.1289L85.3836 57.9795C85.4346 57.9417 85.3781 57.8606 85.323 57.888C85.2492 57.9249 85.1732 57.9613 85.0989 57.9982C82.4175 54.0598 78.1685 56.2986 74.2943 57.5601C72.4162 58.1717 70.7184 58.679 68.7697 58.0833C67.0569 57.5596 65.974 56.4885 64.6282 55.3573C63.6277 54.5166 62.5361 53.6927 61.3611 53.052C60.9294 52.6348 60.4644 52.2591 59.9707 51.9153C62.9765 49.8158 65.9703 47.7018 68.9255 45.5299C70.9434 44.0467 74.0284 42.5015 74.9191 39.9735C75.5162 38.2784 74.7138 36.7218 73.1385 35.867C70.9994 34.7057 68.4118 35.5656 66.275 36.2423C62.9555 37.2934 59.5704 38.1955 56.2892 39.3632C53.2657 40.4389 50.0278 41.4363 47.1209 42.7551C46.3581 42.2382 45.5747 41.7737 44.8602 41.3411C44.7368 41.2664 44.5952 41.255 44.4663 41.286C44.3005 41.24 44.1124 41.2245 43.9029 41.2427C43.8774 41.2022 43.8506 41.1616 43.8082 41.1266C40.4368 38.3486 36.835 35.9076 32.9744 33.8587C30.1422 32.3558 26.9712 30.4727 23.6859 30.429C22.9873 30.4194 22.2964 30.5164 21.5992 30.5405C20.1965 30.5893 18.971 30.163 17.592 30.0483C16.8051 29.9827 16.0086 29.9262 15.2676 30.2901C14.6546 30.5911 14.2739 31.0697 14.135 31.5962C14.0462 31.6449 13.9806 31.736 14.0052 31.8508C14.0248 31.9419 14.053 32.0288 14.0744 32.119C14.0858 32.3285 14.1446 32.5366 14.2352 32.742C15.8173 38.2816 20.6683 42.3225 25.1045 45.6734C27.7741 47.6895 30.5594 49.5535 33.3998 51.3346C33.2586 51.5764 33.1133 51.816 32.9685 52.056C32.4525 52.6876 32.0522 53.4709 31.6378 54.1272C30.7165 53.1394 29.6841 52.26 28.8252 51.6051C28.7405 51.1647 28.5255 50.769 28.1398 50.452C27.4703 49.9019 26.7909 49.921 26.1565 50.2248C23.6517 50.1137 19.2566 55.8582 22.1962 57.5282C22.372 57.6284 22.5606 57.6967 22.7582 57.7368C24.083 59.0789 26.1856 60.063 27.6416 60.7452C27.653 60.7507 27.6648 60.7557 27.6762 60.7612C25.9233 62.3423 26.4689 65.0529 29.2929 64.9072C31.1523 64.8116 32.918 63.2723 34.4714 62.3902C37.1793 60.8522 39.9363 59.4018 42.7662 58.1016C42.7826 58.097 42.7976 58.0993 42.815 58.0902C42.8336 58.0806 42.8496 58.0679 42.8678 58.0578C42.9242 58.0806 42.9889 58.0829 43.0536 58.0474C43.1337 58.0036 43.2084 57.9526 43.2858 57.9048C43.5108 57.7846 43.7508 57.7072 43.9717 57.5778C44.3492 57.7928 44.7268 58.0082 45.1038 58.2227C51.7501 62.0008 58.6396 65.5735 66.0619 67.5559C67.7146 67.9972 69.3914 68.3597 71.0814 68.6252C72.3292 68.821 74.098 69.3739 75.3572 68.9494C76.0217 68.7254 76.4129 68.3046 76.4862 67.8073C77.597 68.4904 78.7446 69.1894 79.8736 69.5474C81.6547 70.1121 82.1971 68.8051 81.2571 67.2558C80.6396 66.2375 79.5343 65.4227 78.444 64.7214C79.364 64.0688 80.2607 63.3793 81.1496 62.6789C81.3099 62.8246 81.4711 62.9685 81.6365 63.1065C81.6989 63.1584 81.7872 63.0583 81.7307 63.0004C81.5873 62.8538 81.4374 62.7117 81.2871 62.5705C82.6898 61.4616 84.0747 60.3271 85.4988 59.2597C85.6259 59.1649 85.6591 58.9564 85.588 58.8193ZM66.198 47.0761C63.9665 48.6131 61.7172 50.1938 59.3473 51.5122C58.5886 51.9344 57.8458 52.2846 57.1044 52.5569C56.5515 52.1657 55.4417 51.468 55.2741 51.1424C54.739 50.1027 55.9126 48.8212 56.5843 48.2328C58.0585 46.9422 59.8929 46.0031 61.6011 45.0613C61.6512 45.0335 61.7159 44.9971 61.7878 44.9566C61.7824 44.9652 61.7815 44.978 61.7919 44.9866C62.8822 45.9152 63.9715 46.8666 65.1151 47.7291C65.1902 47.7856 65.2635 47.6695 65.1957 47.6107C64.1118 46.6789 62.9528 45.8178 61.8156 44.952C61.8047 44.9438 61.7938 44.9479 61.7878 44.9566C63.6131 43.9223 72.2058 38.8787 72.9855 41.7892C72.9909 41.8101 73.0014 41.8252 73.0105 41.842C72.8935 41.9914 72.7723 42.1412 72.6348 42.2892C70.896 44.1601 68.2934 45.6324 66.198 47.0761ZM59.1219 38.8696C61.4668 37.9719 63.9114 37.2073 66.3406 36.5665C67.6936 36.2095 69.1295 35.7878 70.5467 35.9103C73.6841 36.1813 74.9829 38.7589 73.3671 41.3333C72.6125 38.6528 67.199 42.093 66.0104 42.6599C61.9331 44.6055 56.741 46.6657 54.2936 50.6943C54.2389 50.7845 54.2562 50.8992 54.3446 50.9616C55.1744 51.5477 55.9996 52.1202 56.8685 52.6394C54.8938 53.3188 52.9187 53.4222 50.6635 52.7364C49.5637 52.4021 48.473 51.9886 47.3923 51.5487C48.3815 51.6903 49.218 51.6429 49.6744 51.3173C51.1403 50.2712 51.2906 48.144 50.669 46.5929C50.1462 45.2881 49.116 44.2402 47.9483 43.3494C48.4611 43.1313 48.9921 42.9122 49.5168 42.6759C52.8217 42.0215 56.174 39.9981 59.1219 38.8696ZM43.1269 42.1093C43.3642 42.0328 43.6297 42.1298 43.9253 42.4117C43.6966 42.46 43.4411 42.6026 43.2194 42.8125C42.6506 43.3517 40.4295 45.453 40.68 46.638C40.5607 46.4909 40.5416 46.2827 40.5844 46.0482C40.6158 45.9703 40.654 45.8884 40.7041 45.8014C40.803 45.5158 40.9259 45.2412 41.0726 44.9771C41.5926 43.9324 42.3195 43.0939 43.0745 42.2141C43.1051 42.1795 43.1192 42.144 43.1269 42.1093ZM44.5309 43.2388C44.5665 43.0338 44.5633 42.8708 44.5314 42.7442C45.2651 42.945 45.4272 43.41 45.0141 44.1396C44.9258 44.4429 44.8005 44.7298 44.6389 45.0012C44.3092 45.647 43.8966 46.1853 43.376 46.6981C42.6793 47.3844 42.625 47.5492 41.8609 47.2131C42.0312 47.1366 42.1983 47.0137 42.3609 46.8529C42.4315 46.8188 42.4971 46.775 42.5458 46.7081C42.646 46.5696 42.7375 46.428 42.8327 46.2877C43.6948 45.3929 44.3697 44.1719 44.5309 43.2388ZM42.1419 48.3271C43.6994 47.4905 45.1403 45.4885 45.4677 43.762C45.5265 43.4524 45.5433 43.1276 45.5137 42.818C46.399 43.4014 47.5485 44.3477 47.7912 44.544C49.1994 45.6839 50.7113 47.5201 50.0328 49.4866C49.2526 51.7472 47.0817 50.5905 45.5301 50.0221C44.52 49.6519 43.0955 49.1373 42.0175 48.3767C42.059 48.358 42.1 48.3494 42.1419 48.3271ZM47.5767 42.8817C47.5266 42.91 47.4743 42.9355 47.4251 42.9646C47.385 42.9364 47.3449 42.9086 47.3049 42.8808C47.3955 42.8831 47.4861 42.8826 47.5767 42.8817ZM22.4649 54.4902C22.7518 53.7761 23.5884 52.4267 24.5821 51.56C24.1404 52.0897 23.7733 52.6507 23.5197 53.0597C23.4377 53.1918 23.3521 53.343 23.2692 53.506C22.4563 54.7839 21.8269 56.3919 23.598 56.4794C24.1604 56.5072 24.6687 56.1811 25.1122 55.7562C25.6164 55.4178 26.0303 54.8955 26.3874 54.4442C26.8214 53.8954 27.7477 52.8534 28.1421 51.9307C28.2536 52.0309 28.3661 52.1298 28.4795 52.2286C28.3889 53.5456 27.254 54.9825 26.4115 55.7416C25.6938 56.3888 24.7055 57.0678 23.6886 57.0646C22.1425 57.0591 22.015 55.6096 22.4649 54.4902ZM26.0244 59.0347C25.2935 58.6225 24.5029 58.2013 23.7574 57.7227C25.8923 57.3123 28.4722 54.6791 28.8266 52.5292C29.4291 53.0433 30.0398 53.5488 30.6245 54.0857C31.1974 54.6122 31.8059 55.1614 32.3032 55.7635C32.5796 56.1606 32.8565 56.5582 33.1329 56.9557C34.0497 58.3839 33.7222 59.3562 32.1501 59.8736C30.5498 61.0813 30.4159 60.9879 28.7009 60.3568C27.7659 60.0125 26.8897 59.5224 26.0244 59.0347ZM31.1974 61.8391C31.2015 61.861 31.2184 61.8942 31.2402 61.9316C31.2398 61.9461 31.2425 61.9625 31.2434 61.9776C31.1915 61.8783 31.145 61.7813 31.1095 61.6952C31.1209 61.6947 31.1323 61.6934 31.1437 61.6925C31.1665 61.7376 31.187 61.784 31.1974 61.8391ZM30.6596 63.96C28.0173 63.0801 27.1306 62.0609 27.9886 60.9032C28.9035 61.3131 29.961 61.6961 30.9661 61.6961C31.0635 62.4116 31.3841 62.9271 31.963 63.301C31.5394 63.5419 31.1063 63.7641 30.6596 63.96ZM42.6018 57.5815C42.5649 57.6033 42.5385 57.6293 42.5189 57.6575C40.2141 58.8421 37.9034 60.0138 35.6277 61.2544C34.5852 61.8227 33.5596 62.4257 32.5181 62.9968C32.514 62.9895 32.5158 62.9808 32.5108 62.9735C32.4116 62.826 32.2517 62.7344 32.1246 62.611C31.9775 62.468 31.861 62.3082 31.7467 62.1388C31.7316 62.1169 31.7066 62.0727 31.6751 62.0213C31.6506 61.9206 31.6342 61.8168 31.6278 61.7084C31.6132 61.6847 31.6046 61.6629 31.5918 61.6401C32.101 61.5467 32.586 61.3318 33.0159 60.9342C33.4727 60.5116 33.7591 60.0553 33.9121 59.578C34.2086 59.4191 34.4973 59.266 34.7519 59.1158C34.8129 59.0798 34.8799 59.0383 34.945 58.9983C35.4514 59.7324 36.3035 60.3271 37.2175 60.2939C37.3323 60.2898 37.3396 60.1372 37.228 60.1172C36.3331 59.9587 35.5999 59.6582 35.0589 58.929C36.763 57.8729 39.7122 55.7758 41.3745 57.1361C41.4624 57.208 41.5635 57.06 41.4738 56.9899C40.7656 56.4366 40.0265 56.3746 39.163 56.6274C37.713 57.0518 36.278 57.9262 34.9332 58.7592C34.8885 58.6981 34.782 58.7478 34.8234 58.8175C34.8248 58.8197 34.8266 58.822 34.828 58.8243C34.5392 59.0033 34.2546 59.1786 33.9754 59.3476C34.3202 57.8356 33.3811 56.1365 32.0873 54.6286C32.1105 54.6076 32.1347 54.5885 32.1533 54.5571C32.5914 53.8257 33.1844 53.0429 33.5264 52.2158C33.6489 52.025 33.7719 51.8347 33.8944 51.6438C36.9798 53.5629 40.1271 55.3873 43.2772 57.183C43.0527 57.3155 42.8273 57.4485 42.6018 57.5815ZM74.139 68.2682C73.6335 68.2267 73.1294 68.1734 72.6266 68.1074C71.9576 68.0259 71.2909 67.9307 70.6269 67.8159C68.839 67.5067 67.0692 67.0991 65.3255 66.5972C62.4067 65.7575 59.5609 64.6709 56.787 63.4372C50.9108 60.8235 45.348 57.5596 39.8093 54.3071C30.8449 49.043 19.2816 43.0534 14.9775 32.9979C15.5441 31.1604 16.5924 30.5387 18.1353 31.1658C18.4619 31.2601 18.792 31.3393 19.1254 31.4026C19.3841 31.4418 19.6314 31.4728 19.875 31.4987C20.1824 31.7342 20.4994 31.9573 20.8473 32.1541C21.524 32.5366 22.2468 32.8162 22.934 33.1742C23.3256 33.3787 23.7469 33.2703 23.9231 32.8426C24.0912 32.4341 24.0347 31.9942 23.8476 31.6089C25.7644 31.7784 27.4294 32.3107 29.3849 33.1842C34.2769 35.3684 38.7714 38.2174 42.9416 41.566C42.4233 41.873 41.9406 42.3662 41.527 42.9277C40.4773 44.0635 39.5624 45.6055 39.7327 46.9809C39.8234 47.7132 40.2369 48.2415 40.7852 48.4487C41.5321 49.3736 43.2125 50.3072 44.944 50.9206C48.8473 52.807 52.6641 54.8522 56.6166 53.6882C56.6107 53.8917 56.6686 54.1026 56.7792 54.2606C56.8935 54.5544 57.1399 54.7821 57.4555 54.9328C57.7666 55.0813 58.1291 54.9328 58.3818 54.7516C58.875 54.3977 58.8181 53.8066 58.6446 53.3097C58.5904 53.1549 58.4975 53.0378 58.3836 52.9504C58.4847 52.8953 58.5858 52.8338 58.6869 52.7733C59.5281 53.3439 60.4334 53.7888 61.3229 54.3403C62.8134 55.2643 64.0407 56.4944 65.4726 57.4927C67.7405 59.0743 70.0166 59.4815 72.6904 58.8134C74.1345 58.4527 75.5358 57.893 76.9507 57.4357C77.7013 57.193 78.5679 56.8282 79.3507 56.7012C80.661 56.4885 83.5296 56.9639 84.102 58.4773C81.3263 59.7907 78.2236 61.125 76.0773 63.2445C74.435 62.2513 72.7081 61.3764 70.8674 60.8377C70.8446 60.8076 70.8136 60.7812 70.7672 60.7666C69.1177 60.2538 68.6008 61.7102 69.319 62.9899C70.3195 64.7729 73.0438 65.869 74.747 66.7799C74.9952 66.9124 75.248 67.059 75.5034 67.2102C75.0494 67.5636 74.5944 67.9157 74.139 68.2682ZM79.3708 67.4224C76.4794 66.0589 73.8421 64.2665 71.1051 62.6033C71.0773 62.5864 71.0495 62.627 71.0768 62.6452C73.7624 64.4177 76.4621 66.3841 79.4204 67.7071C79.4209 67.7599 79.4181 67.8127 79.4077 67.8633C79.1577 69.0838 78.4167 68.0473 77.6334 67.6146C77.1666 67.3569 76.7025 67.0941 76.2371 66.8341C76.2025 66.7803 76.1774 66.7266 76.136 66.6724C76.0276 66.5312 75.8819 66.5139 75.758 66.5658C75.5499 66.4488 75.3404 66.334 75.1327 66.2165C74.277 65.7311 73.4054 65.2624 72.5915 64.7082C72.3228 64.521 72.0542 64.3339 71.785 64.1467C70.2976 63.5697 69.9288 62.5919 70.6711 61.2161C71.9854 62.0236 74.8572 63.5187 76.9544 64.991C76.7053 65.2119 77.0209 65.6901 77.3146 65.4965C77.3729 65.4583 77.4294 65.4173 77.4877 65.3786C78.46 66.1109 79.1836 66.8218 79.3708 67.4224ZM77.8761 64.3616C77.5373 64.1517 77.2062 63.9495 76.9043 63.7573C76.6497 63.5956 76.3933 63.4362 76.1346 63.2791C77.157 62.3934 78.3019 61.7125 79.4819 61.0727C79.9451 61.5144 80.4005 61.9744 80.8691 62.417C79.8021 63.1562 78.689 63.8406 77.8761 64.3616ZM81.0121 62.3173C80.5312 61.8824 80.0329 61.4629 79.5525 61.0344C79.8749 60.86 80.1992 60.6874 80.5243 60.5148C81.2393 60.1345 81.9539 59.7538 82.6716 59.3781C83.0646 59.1722 83.6571 58.9659 84.1767 58.7209C84.353 59.721 82.7709 61.0859 81.0121 62.3173Z" fill="black"/>
<path d="M26.95 33.0578C26.8016 33.015 26.6472 32.9781 26.4923 32.9785C25.9754 32.9803 25.6489 33.2445 25.434 33.6908C25.4604 33.637 25.4868 33.5833 25.5132 33.5296C25.4408 33.6284 25.398 33.7377 25.3852 33.8575C25.347 34.0519 25.3698 34.2309 25.4517 34.4149C25.464 34.4413 25.4754 34.4677 25.4863 34.4946C25.6257 34.833 26.0142 35.0625 26.3689 35.0802C26.521 35.088 26.6763 35.0793 26.8243 35.0438C27.2533 34.9404 27.6409 34.5583 27.6477 34.0938C27.6541 33.6539 27.3963 33.1876 26.95 33.0578Z" fill="black"/>
<path d="M30.0672 35.1578C29.9798 35.1692 29.906 35.1792 29.8209 35.202C29.4538 35.2999 29.2188 35.5722 29.1746 35.948C29.1359 36.2768 29.2479 36.5131 29.4328 36.7709C29.7922 37.2728 30.677 37.1876 30.9831 36.6798C30.9985 36.6538 31.014 36.6283 31.0295 36.6024C31.4658 35.8792 30.887 35.0508 30.0672 35.1578Z" fill="black"/>
<path d="M33.1668 36.8121C32.6167 36.8836 32.2264 37.3595 32.3088 37.916C32.3416 38.1364 32.4446 38.3218 32.6008 38.4775C33.0416 38.9174 33.8486 38.9794 34.2138 38.3828C34.3213 38.207 34.3664 38.0745 34.3883 37.87C34.4625 37.1746 33.7844 36.7319 33.1668 36.8121Z" fill="black"/>
<path d="M36.8299 38.7443C36.3235 38.7097 35.9915 39.1009 35.9118 39.5609C35.8781 39.7553 35.9118 40.0236 35.971 40.2176C36.1181 40.7003 36.4956 41.0478 37.0253 41.0095C37.4912 40.9763 37.9639 40.5783 37.9562 40.0755C37.9461 39.4161 37.5367 38.7926 36.8299 38.7443Z" fill="black"/>
<path d="M40.5866 41.6931C40.2838 41.4877 39.9335 41.5497 39.6585 41.7528C39.622 41.7651 39.5847 41.7751 39.5492 41.791C39.3392 41.8857 39.3124 42.0907 39.3916 42.2574C39.367 42.5338 39.4645 42.8061 39.7154 42.9765C40.0615 43.2114 40.5579 43.1172 40.7929 42.7706C41.0284 42.4227 40.9345 41.929 40.5866 41.6931Z" fill="black"/>
<path d="M61.8597 55.4412C61.3533 55.2691 60.7171 55.5496 60.5627 56.0802C60.4079 56.6125 60.6588 57.1927 61.2017 57.3772C61.7081 57.5493 62.3443 57.2688 62.4987 56.7382C62.6535 56.2054 62.4026 55.6257 61.8597 55.4412Z" fill="black"/>
<path d="M65.4805 59.7087C65.7615 59.5703 65.9227 59.2424 65.8598 58.9355C65.7774 58.5329 65.4472 58.4031 65.0911 58.373C65.077 58.3575 65.0629 58.3421 65.0492 58.3266C64.8925 58.1544 64.6061 58.2951 64.6475 58.5247C64.6512 58.5447 64.6548 58.5647 64.6585 58.5852C64.4786 58.8603 64.3798 59.1522 64.5865 59.4633C64.7782 59.7525 65.164 59.865 65.4805 59.7087Z" fill="black"/>
<path d="M64.3501 63.933C64.3706 63.8241 64.4143 63.7385 64.4029 63.6251C64.3979 63.5768 64.3542 63.5372 64.3114 63.5213C64.1456 63.4594 63.9083 63.5746 63.7785 63.6834C63.5727 63.8565 63.4652 64.112 63.4247 64.3688C63.3336 64.9481 64.356 65.01 64.3319 64.4221C64.325 64.2513 64.3187 64.0992 64.3501 63.933Z" fill="black"/>
<path d="M62.9405 63.1241C62.6099 63.171 62.2146 63.4793 62.3762 63.8464C62.4309 63.9707 62.5862 63.9812 62.6832 63.9083C62.8194 63.8068 62.8531 63.6205 63.0311 63.5695C63.3117 63.4889 63.2329 63.0822 62.9405 63.1241Z" fill="black"/>
<path d="M61.7342 62.8584C61.5893 62.8762 61.5019 62.8124 61.3726 62.7742C61.2833 62.7478 61.1954 62.8388 61.2391 62.9263C61.3452 63.139 61.5761 63.1772 61.7947 63.1553C61.9874 63.1362 61.9286 62.8343 61.7342 62.8584Z" fill="black"/>
<path d="M42.8165 54.1188C42.6307 53.9922 42.4344 54.132 42.398 54.3251C42.3816 54.3761 42.3784 54.4276 42.3889 54.4799C42.3961 54.5847 42.4681 54.6639 42.5806 54.6462C42.6607 54.6334 42.7099 54.6147 42.7846 54.5815C42.9713 54.4986 42.9782 54.229 42.8165 54.1188Z" fill="black"/>
<path d="M42.1207 53.0174C42.0301 52.996 41.9928 52.9897 41.8985 52.9865C41.6576 52.9778 41.7163 53.3626 41.9203 53.2948C42.0142 53.2634 42.0474 53.2529 42.1326 53.2042C42.2013 53.1645 42.2127 53.0388 42.1207 53.0174Z" fill="black"/>
<path d="M45.1019 47.4833C44.8182 47.4478 44.5681 47.6163 44.3404 47.7648C44.2143 47.8472 44.2594 48.094 44.4352 48.0412C44.7066 47.9597 45.0108 47.8786 45.1734 47.6281C45.2135 47.5657 45.172 47.492 45.1019 47.4833Z" fill="black"/>
<path d="M45.6455 48.1738C45.451 48.1469 45.2898 48.1797 45.0994 48.2239C44.925 48.2644 44.9783 48.5258 45.155 48.4962C45.3463 48.4643 45.5088 48.4325 45.6778 48.3336C45.752 48.2899 45.7302 48.1856 45.6455 48.1738Z" fill="black"/>
<path d="M46.0526 48.8547C46.3035 48.781 46.5776 48.7304 46.8113 48.6125C46.9078 48.5637 46.8545 48.4244 46.7521 48.4385C46.5021 48.4731 46.2534 48.5856 46.0139 48.6648C45.8982 48.7035 45.9314 48.8907 46.0526 48.8547Z" fill="black"/>
<path d="M26.6202 57.8188C26.3169 57.745 25.9799 57.812 25.667 57.771C25.5049 57.7496 25.4881 57.9741 25.616 58.0328C25.938 58.1822 26.3533 58.2719 26.668 58.0624C26.7559 58.0041 26.719 57.8429 26.6202 57.8188Z" fill="black"/>
<path d="M27.2613 58.4909C27.1552 58.4649 27.0627 58.4618 26.9534 58.459C26.7959 58.4554 26.7822 58.7045 26.9393 58.7027C27.0486 58.7013 27.1438 58.7022 27.2499 58.6772C27.3364 58.6571 27.3596 58.515 27.2613 58.4909Z" fill="black"/>
<path d="M28.2837 58.7784C28.117 58.7502 27.9827 58.8458 27.8957 58.9829C27.8552 59.0471 27.9485 59.1104 27.9932 59.0494C28.0797 58.9314 28.1644 58.9187 28.2919 58.895C28.3616 58.8818 28.3456 58.7889 28.2837 58.7784Z" fill="black"/>
<path d="M20.816 38.6319C20.8602 38.8104 20.9217 38.9256 21.0273 39.0755C21.0588 39.1196 21.1389 39.0909 21.138 39.0377C21.1348 38.8446 21.1171 38.7298 21.0451 38.5531C20.9932 38.4251 20.7828 38.4975 20.816 38.6319Z" fill="black"/>
<path d="M22.0328 39.7783C21.9673 39.7746 21.9017 39.771 21.8361 39.7678C21.6867 39.7596 21.7222 40.0023 21.8498 39.9595C21.9135 39.9381 21.9773 39.9167 22.041 39.8948C22.1002 39.8748 22.1048 39.7819 22.0328 39.7783Z" fill="black"/>
<path d="M22.9068 40.3274C22.7989 40.291 22.7419 40.4581 22.8499 40.495C22.9573 40.5314 23.0147 40.3643 22.9068 40.3274Z" fill="black"/>
<path d="M32.1889 46.9759C31.9939 46.9445 31.8327 47.0205 31.6747 47.1294C31.5577 47.21 31.6934 47.4167 31.8131 47.3384C31.9352 47.2587 32.065 47.2245 32.2034 47.1845C32.3209 47.1503 32.3073 46.9955 32.1889 46.9759Z" fill="black"/>
<path d="M32.7219 47.8223C32.5234 47.8565 32.3353 47.9434 32.1477 48.0145C32.0151 48.0646 32.0926 48.2973 32.2287 48.2513C32.4186 48.1871 32.6199 48.1352 32.7948 48.0354C32.9059 47.9721 32.8526 47.8 32.7219 47.8223Z" fill="black"/>
<path d="M33.2877 48.2532C33.1916 48.2386 33.1019 48.2377 33.0045 48.2363C32.8965 48.2345 32.8856 48.403 32.9944 48.4044C33.0983 48.4058 33.1948 48.4067 33.2977 48.3944C33.3834 48.3848 33.3629 48.2646 33.2877 48.2532Z" fill="black"/>
<path d="M36.4014 48.5526C36.4046 48.8162 36.3968 49.0808 36.4587 49.339C36.4783 49.421 36.5881 49.4074 36.6004 49.329C36.64 49.074 36.6122 48.8194 36.5949 48.5639C36.5863 48.4433 36.4 48.425 36.4014 48.5526Z" fill="black"/>
<path d="M37.6723 49.172C37.7415 49.034 37.5434 48.8946 37.4701 49.0349C37.3312 49.3004 37.2533 49.5491 37.3549 49.8387C37.3731 49.8911 37.4569 49.8806 37.4714 49.8314C37.5347 49.6115 37.5694 49.3774 37.6723 49.172Z" fill="black"/>
<path d="M55.6552 46.5151C55.728 46.5939 55.8487 46.5101 55.8082 46.4136C55.7344 46.2369 55.6169 46.082 55.5122 45.9222C55.4361 45.8065 55.2403 45.899 55.3159 46.0187C55.422 46.1877 55.519 46.368 55.6552 46.5151Z" fill="black"/>
<path d="M57.1576 45.3206C57.2601 45.3557 57.3148 45.1963 57.2118 45.1613C57.1094 45.1262 57.0547 45.2856 57.1576 45.3206Z" fill="black"/>
<path d="M59.777 43.9431C59.8075 43.7956 59.838 43.6475 59.8685 43.5C59.8958 43.3666 59.6959 43.3319 59.6881 43.4649C59.6795 43.617 59.6709 43.7691 59.6622 43.9208C59.6586 43.9845 59.7633 44.01 59.777 43.9431Z" fill="black"/>
<path d="M54.0283 59.504C54.0456 59.6383 54.0597 59.769 54.0985 59.8988C54.1249 59.9885 54.2733 59.9935 54.2733 59.8865C54.2733 59.7426 54.2492 59.6055 54.2264 59.4634C54.2059 59.3341 54.0119 59.376 54.0283 59.504Z" fill="black"/>
<path d="M55.7942 59.4085C55.7523 59.2586 55.516 59.3037 55.5551 59.4572C55.6216 59.7191 55.7214 59.8771 55.935 60.0429C55.9791 60.077 56.0388 60.0205 56.0147 59.9732C55.929 59.8056 55.8448 59.5902 55.7942 59.4085Z" fill="black"/>
</svg>
