<svg width="100" height="100" viewBox="0 0 100 100" fill="none" xmlns="http://www.w3.org/2000/svg">
<rect width="100" height="100" fill="white"/>
<path d="M79.344 47.0041C78.949 46.0279 77.8252 45.0712 77.1656 44.3132C76.0395 43.0187 74.9026 41.7336 73.7556 40.4575C71.3468 37.7781 68.8916 35.1407 66.4071 32.5313C65.8635 31.9607 65.1277 32.6846 65.397 33.311C66.0177 34.7579 63.4268 38.8403 62.3825 39.9129C61.0463 41.2855 58.0063 40.0184 56.1942 39.7383C53.8379 39.3735 50.2481 38.1978 48.0933 39.4549C46.6034 40.3241 45.1929 42.1604 43.9911 43.3627C42.5622 44.7921 41.1631 46.2513 39.7971 47.7407C39.226 48.3634 38.6043 49.2667 37.9314 49.7904C36.467 50.9307 34.7268 50.6057 33.0887 50.5267C30.5228 50.4027 27.9569 50.2754 25.3915 50.1458C25.2723 50.1396 25.1791 50.1713 25.0977 50.2163C24.7641 50.1458 24.3406 50.4353 24.4821 50.8281C25.6092 53.9584 27.2231 56.601 29.5136 59.0159C32.4997 62.1638 34.8006 65.4527 37.0959 69.1286C37.2416 69.3619 37.5941 69.5639 37.877 69.4466C41.5496 67.923 44.7893 67.6197 48.6956 67.5081C51.2076 67.4366 52.4047 66.1932 54.0503 64.4113C56.337 61.9353 58.902 59.1058 61.6657 57.1636C63.0302 56.2045 64.9148 56.1127 66.5259 55.8463C68.7866 55.4725 70.9664 55.1456 73.247 55.3817C75.4112 55.6055 76.1384 53.6982 77.3109 52.0171C78.3036 50.5915 80.094 48.856 79.344 47.0041Z" fill="#7D7D7D"/>
<path d="M84.1007 47.3572C80.3879 44.4534 77.8338 40.8665 74.8889 37.2506C71.997 33.7001 68.8785 30.3412 65.5844 27.1612C65.3199 26.9057 64.8898 26.9615 64.6987 27.2752C62.5842 30.7415 60.7748 34.4113 59.1685 38.1383C55.4244 37.6533 51.9581 36.0176 48.2231 35.4498C47.0449 35.2705 46.3806 35.3098 45.8389 35.7039C45.7258 35.7143 45.6207 35.7697 45.5687 35.8913C45.5616 35.9074 45.555 35.9235 45.5479 35.9395C45.5436 35.95 45.5427 35.9604 45.5389 35.9708C45.3974 36.1198 45.2588 36.2968 45.1159 36.5083C45.0624 36.5225 45.0085 36.5362 44.955 36.5504C44.6631 36.8433 44.3735 37.138 44.0863 37.4357C43.7035 37.8322 43.3259 38.2339 42.9522 38.6393C42.0172 39.6524 41.1045 40.6857 40.2145 41.738C38.7354 43.4863 37.0889 45.3042 36.0247 47.3453C32.5741 46.1364 28.5452 46.2528 24.9421 46.2746C22.9899 46.2864 21.0381 46.3318 19.0864 46.3546C17.807 46.3697 17.0746 46.1894 16.1448 46.9744C16.142 46.9767 16.1429 46.9791 16.1406 46.9815C16.0606 46.9526 15.9617 47.0416 16.0152 47.1277C21.3003 55.67 27.9471 63.5531 33.8951 71.6525C33.8965 71.6544 33.8965 71.6563 33.8979 71.6578C33.9637 71.7467 34.0299 71.8352 34.0957 71.9241C34.2675 72.1555 34.5495 72.1574 34.7458 72.0438C35.0978 72.5326 34.9256 72.2686 35.5251 72.4735C36.2774 72.7309 37.6344 72.34 38.4596 72.2681C39.6013 72.1683 40.7425 72.0599 41.8833 71.9487C45.6704 71.5797 49.4977 71.2731 53.2574 70.6835C53.3984 70.6613 53.4883 70.579 53.5403 70.4744C54.0807 70.1702 54.4559 69.6118 54.8623 69.1519C55.8824 67.9984 56.8718 66.8193 57.9014 65.6743C59.8678 63.4869 61.9454 61.405 63.926 59.2314C64.033 59.114 64.0722 58.9872 64.0717 58.8666C66.3855 59.2337 68.7753 59.1874 71.1103 59.3383C72.659 59.4386 75.2116 60.1782 76.712 59.6534C76.8582 59.8006 77.1194 59.8247 77.2873 59.5933C79.9029 55.9889 82.0638 51.9193 84.1849 48.0087C84.2871 47.819 84.289 47.5043 84.1007 47.3572ZM47.9808 36.329C49.3241 36.3928 50.8027 36.9147 52.0816 37.2904C54.4105 37.9741 56.6641 38.7411 59.0677 39.0685C59.1467 39.174 59.2778 39.2374 59.4476 39.1948C59.5418 39.1712 59.6364 39.147 59.7306 39.1234C59.847 39.0936 59.9251 39.034 59.9804 38.963C60.5728 39.6798 61.1666 40.3952 61.7642 41.1073C60.7606 40.9644 59.8328 40.5424 58.8269 40.4127C57.75 40.2741 56.6972 40.2329 55.6307 40.1104C57.7675 40.6119 59.8976 41.1707 61.9601 41.3392C65.8924 46.0181 69.9152 50.6195 73.8196 55.3227C72.085 55.7282 69.9152 55.4708 68.1825 55.4906C66.1517 55.5143 64.1186 55.784 62.1124 56.1019C59.9321 53.2153 57.6549 50.392 55.4462 47.5332C53.3293 44.7936 51.2697 41.9841 49.1235 39.254C49.8228 39.2209 50.5283 39.245 51.238 39.3126C50.5141 39.2081 49.7906 39.1541 49.0795 39.1977C48.3432 38.2622 47.5952 37.3377 46.832 36.4274C47.1779 36.3488 47.5512 36.3086 47.9808 36.329ZM39.4381 71.3847C38.2254 71.5461 35.9912 72.2946 34.8925 71.9076C34.9796 71.786 35.0004 71.6279 34.8778 71.4671C28.7491 63.4169 23.0434 54.7322 16.3213 47.1641C19.5449 46.7345 23.1508 47.0884 26.4046 47.1253C29.668 47.1622 32.7941 47.6808 36.0238 48.0177C36.1227 48.0281 36.1974 47.9988 36.249 47.9481C36.8177 48.7563 37.3761 49.5701 37.9259 50.3886C35.6178 50.4951 33.1645 49.9997 30.8224 50.0508C28.6417 50.0986 26.4775 50.2254 24.3341 50.6195C24.2135 50.4502 24.0942 50.2793 23.9736 50.11C23.9556 50.0849 23.9149 50.1076 23.9315 50.1346C24.0356 50.3025 24.1439 50.4677 24.2485 50.6356C24.1203 50.6598 23.9916 50.6811 23.8629 50.7071C23.8496 50.7099 23.8525 50.7322 23.8662 50.7307C24.0048 50.7151 24.143 50.7028 24.2816 50.6877C28.1785 56.92 32.557 62.8917 36.9526 68.7843C36.8566 68.8046 36.7596 68.8212 36.664 68.842C36.6228 68.851 36.6408 68.9121 36.681 68.9045C36.7875 68.8846 36.8949 68.869 37.0018 68.8501C37.2653 69.2035 37.5289 69.5579 37.7924 69.9104C37.8696 70.0136 38.0456 69.9128 37.967 69.8082C37.7191 69.4775 37.4754 69.1434 37.2294 68.8113C41.3103 68.1001 45.4603 67.7614 49.582 67.3549C50.3054 68.2653 51.1571 69.2702 52.0296 69.8565C49.2938 70.0954 46.5628 70.4858 43.8388 70.8155C42.3711 70.9949 40.9044 71.1893 39.4381 71.3847ZM38.1061 50.6546C40.3314 53.9813 42.4374 57.3747 44.6479 60.7218C45.8691 62.5709 47.1504 64.3854 48.5727 66.0864C48.8273 66.3911 49.1216 66.7725 49.4429 67.1803C45.3525 67.6099 41.2053 67.9038 37.1769 68.7403C32.7799 62.8065 28.6493 56.6995 24.3758 50.6787C26.6885 50.4274 28.9809 50.2623 31.3131 50.2387C33.5913 50.2159 35.8615 50.7383 38.0957 50.6593C38.1005 50.6588 38.1019 50.655 38.1061 50.6546ZM55.8848 66.0291C55.5933 66.3627 53.2465 68.64 52.8032 69.7898C52.7431 69.7945 52.6835 69.8006 52.6234 69.8054C52.0759 69.3923 51.0634 68.35 50.0982 67.3052C50.1142 67.3038 50.1303 67.3019 50.1464 67.3005C50.2699 67.2882 50.2704 67.0928 50.1464 67.106C50.0759 67.1136 50.0054 67.1207 49.9349 67.1283C48.8547 65.9525 47.8734 64.8202 47.7296 64.6348C46.2041 62.6698 44.8334 60.5955 43.501 58.4966C41.21 54.8864 39.0789 51.0899 36.3233 47.8033C36.3261 47.7915 36.3309 47.7802 36.3323 47.7679C36.356 47.7504 36.3791 47.7295 36.399 47.7007C36.4657 47.6037 36.5324 47.5062 36.5992 47.4087C36.6238 47.3728 36.5906 47.3236 36.5504 47.3236C37.4182 47.3203 38.7577 44.9072 39.2639 44.2793C40.2159 43.0993 41.1953 41.9419 42.2013 40.8083C43.1163 39.7773 44.0551 38.768 45.008 37.7721C45.335 37.4304 45.8128 37.0926 46.0868 36.671C46.269 36.5915 46.4563 36.5244 46.6513 36.4704C47.3085 37.3959 47.9832 38.31 48.6707 39.2161C45.1107 42.6564 41.6955 46.3233 38.5135 50.1137C38.4771 50.1568 38.5372 50.2193 38.5765 50.1767C41.9311 46.5187 45.325 42.919 48.7686 39.3458C50.7019 41.888 52.7208 44.3744 54.6674 46.8939C57.0421 49.9675 59.3606 53.1031 61.7727 56.154C61.7453 56.1583 61.7178 56.162 61.6909 56.1668C61.6729 56.1696 61.6771 56.1999 61.6951 56.1985C61.7306 56.1956 61.7661 56.1919 61.8016 56.189C61.82 56.2122 61.8389 56.2349 61.8574 56.2586C61.8276 56.2382 61.7883 56.2311 61.7543 56.2633C57.934 59.8654 54.0854 63.4566 50.3064 67.1018C50.2605 67.1458 50.3276 67.2101 50.375 67.1704C54.3792 63.8101 58.2387 60.1389 61.8744 56.384C61.9028 56.3546 61.8995 56.3224 61.8863 56.2945C62.4313 56.9825 62.983 57.6643 63.5399 58.3414C63.4193 58.3409 63.2934 58.3783 63.1765 58.481C60.5496 60.7942 58.1853 63.3961 55.8848 66.0291ZM76.2218 59.1391C76.2772 58.3239 64.9911 58.2283 63.8825 58.3669C63.8541 58.3702 63.8276 58.3797 63.8035 58.392C63.2612 57.6421 62.7119 56.8973 62.1541 56.1583C64.5771 55.9472 66.9878 55.5786 69.4269 55.6917C70.8648 55.7584 72.5681 55.8786 73.9526 55.4821C74.8582 56.5742 75.7576 57.6709 76.6472 58.7767C76.4352 58.7421 76.2369 58.9148 76.2218 59.1391ZM81.7638 49.9392C80.0723 52.8287 78.272 55.7178 76.8587 58.7587C75.9464 57.6506 75.0361 56.5391 74.1262 55.4258C74.2024 55.3757 74.1627 55.2413 74.0605 55.2697C74.0434 55.2744 74.025 55.2763 74.0079 55.281C70.1598 50.5727 66.3088 45.8488 62.2671 41.3098C62.2932 41.2601 62.2771 41.1958 62.2213 41.1674C63.7486 38.5362 65.1628 35.8151 66.6102 33.1385C66.6547 33.0562 66.5321 32.9842 66.4843 33.0647C64.9333 35.6708 63.4126 38.3786 62.1607 41.1423C62.1597 41.1442 62.1626 41.1447 62.1621 41.1466C62.1474 41.1456 62.1337 41.1433 62.1195 41.1423C61.433 40.373 60.7389 39.6103 60.0396 38.8527C60.0907 38.7061 60.0585 38.5367 59.9596 38.4032C61.4732 34.9185 63.2693 31.6537 65.2911 28.4496C69.8858 32.8669 73.8958 37.6637 77.8248 42.6838C78.7707 43.8923 79.7704 45.0321 80.9046 46.0688C81.277 46.409 82.4679 47.0591 82.633 47.545C82.9429 48.4544 82.2048 49.1854 81.7638 49.9392Z" fill="#3F3E3E"/>
<path d="M54.4188 39.9281C54.8262 40.0076 55.2293 40.0639 55.6305 40.1098C54.1623 39.7648 52.6913 39.4516 51.2373 39.3125C52.3114 39.4682 53.3859 39.7265 54.4188 39.9281Z" fill="#3F3E3E"/>
<path d="M79.0852 47.8449C79.1339 47.8146 79.1614 47.7564 79.1183 47.6968C75.2995 42.4164 71.625 37.4019 66.6446 33.1261C66.6408 33.1227 66.6352 33.1279 66.6389 33.1317C68.8661 35.3579 71.2072 37.4535 73.1982 39.9054C75.2446 42.4254 77.0421 45.1663 78.9158 47.815C78.9456 47.8567 78.9872 47.8638 79.0279 47.8591C79.0189 47.8652 79.0081 47.8671 79.001 47.878C77.4202 50.3492 75.7684 52.7751 74.1862 55.244C74.1644 55.2781 74.2169 55.3206 74.2434 55.288C76.0868 53.0367 77.7216 50.4983 79.1476 47.9636C79.1817 47.9035 79.1372 47.8543 79.0852 47.8449Z" fill="#3F3E3E"/>
<path d="M37.5464 62.6409C37.3657 62.551 37.1802 62.454 36.9838 62.4052C36.8897 62.3821 36.8078 62.5037 36.8854 62.5742C37.0467 62.7208 37.2417 62.8278 37.4305 62.9347C37.6103 63.036 37.7697 63.1471 37.9779 63.1665C38.09 63.1769 38.118 63.0364 38.0607 62.9659C37.9311 62.8065 37.7271 62.7308 37.5464 62.6409Z" fill="#3F3E3E"/>
<path d="M37.955 61.8491C38.0421 61.8718 38.1221 61.7744 38.0738 61.6944C37.9531 61.4947 37.71 61.3906 37.5174 61.269C37.4175 61.2061 37.2993 61.3547 37.3896 61.4342C37.5609 61.5851 37.7284 61.7895 37.955 61.8491Z" fill="#3F3E3E"/>
<path d="M37.5862 58.872C37.7059 58.872 37.7064 58.6855 37.5862 58.6855C37.466 58.6855 37.466 58.872 37.5862 58.872Z" fill="#3F3E3E"/>
<path d="M53.084 56.1999C53.1043 55.9955 53.0509 55.7939 53.0452 55.5905C53.039 55.3648 53.0878 55.1514 53.1711 54.9432C53.2406 54.77 52.9473 54.6451 52.8678 54.8154C52.6714 55.2356 52.5153 55.9108 52.8971 56.2775C52.9704 56.347 53.075 56.2917 53.084 56.1999Z" fill="#3F3E3E"/>
<path d="M54.3216 55.3202C54.4541 55.1537 54.5005 55.0046 54.553 54.7988C54.5979 54.6218 54.3287 54.5476 54.28 54.7236C54.2227 54.9284 54.1882 55.0817 54.2204 55.2932C54.227 55.3363 54.2946 55.3538 54.3216 55.3202Z" fill="#3F3E3E"/>
<path d="M63.0714 50.4798C63.3283 50.5782 63.6075 50.7367 63.8843 50.7448C64.0319 50.749 64.0565 50.5626 63.9538 50.4883C63.7324 50.3284 63.4073 50.2849 63.1466 50.2063C62.9692 50.1529 62.9044 50.4159 63.0714 50.4798Z" fill="#3F3E3E"/>
<path d="M63.8597 48.6323C63.95 48.6588 64.0409 48.5277 63.9581 48.4634C63.8705 48.3957 63.7877 48.3503 63.6874 48.302C63.5531 48.2372 63.4343 48.4326 63.5691 48.5046C63.6671 48.5571 63.7537 48.6015 63.8597 48.6323Z" fill="#3F3E3E"/>
<path d="M69.4775 40.1889C69.5281 40.2897 69.5726 40.373 69.6426 40.4605C69.7169 40.5532 69.8584 40.452 69.8319 40.3503C69.804 40.2419 69.7585 40.1544 69.7079 40.0541C69.6308 39.9003 69.4004 40.0356 69.4775 40.1889Z" fill="#3F3E3E"/>
<path d="M76.3609 54.089C76.1996 54.0275 76.0822 54.3015 76.2422 54.3701C76.4778 54.4713 76.7068 54.5872 76.9661 54.6043C77.0541 54.61 77.109 54.4831 77.0404 54.4245C76.8426 54.257 76.6003 54.1803 76.3609 54.089Z" fill="#3F3E3E"/>
<path d="M78.2212 52.211C78.1134 52.0827 77.9099 52.2862 78.0381 52.3941C78.1384 52.4788 78.234 52.5658 78.3457 52.6349C78.4176 52.6794 78.5065 52.5904 78.4621 52.5185C78.393 52.4068 78.3055 52.3113 78.2212 52.211Z" fill="#3F3E3E"/>
<path d="M21.6849 48.9089C21.5965 49.2676 21.4928 49.6064 21.5037 49.9778C21.5051 50.0227 21.5723 50.0478 21.5941 50.0024C21.7545 49.6693 21.7994 49.3206 21.8643 48.9586C21.8851 48.8422 21.7143 48.7906 21.6849 48.9089Z" fill="#3F3E3E"/>
<path d="M20.3819 48.545C20.3871 48.8067 20.3994 49.0622 20.4278 49.3224C20.4334 49.3745 20.5035 49.3745 20.5087 49.3224C20.5361 49.0622 20.5475 48.8067 20.5517 48.545C20.5536 48.4357 20.3795 48.4353 20.3819 48.545Z" fill="#3F3E3E"/>
</svg>
